<svg xmlns="http://www.w3.org/2000/svg" width="804" height="804" viewBox="0 0 804 804" fill="none"><path d="M679.937 432.531C679.965 433.854 679.984 435.179 679.993 436.507L679.493 436.51C679.498 437.173 679.5 437.836 679.5 438.5C679.5 439.164 679.498 439.827 679.493 440.489L679.993 440.493C679.984 441.82 679.965 443.146 679.937 444.469L679.437 444.458C679.409 445.779 679.372 447.098 679.326 448.414L679.825 448.432C679.779 449.75 679.723 451.066 679.658 452.38L679.159 452.355C679.094 453.68 679.019 455.001 678.935 456.32L679.434 456.352C679.35 457.675 679.256 458.995 679.154 460.313L678.655 460.274C678.553 461.59 678.441 462.902 678.32 464.213L678.818 464.259C678.697 465.575 678.566 466.889 678.426 468.201L677.929 468.148C677.789 469.465 677.639 470.78 677.48 472.091L677.977 472.151C677.818 473.466 677.649 474.777 677.472 476.085L676.976 476.018C676.799 477.324 676.613 478.627 676.417 479.927L676.912 480.001C676.715 481.313 676.509 482.621 676.293 483.926L675.8 483.845C675.585 485.15 675.36 486.452 675.127 487.751L675.619 487.839C675.385 489.141 675.142 490.439 674.89 491.734L674.399 491.638C674.147 492.933 673.886 494.226 673.616 495.515L674.105 495.617C673.833 496.915 673.552 498.21 673.262 499.501L672.774 499.391C672.484 500.68 672.186 501.965 671.878 503.247L672.364 503.364C672.056 504.648 671.739 505.929 671.413 507.206L670.929 507.083C670.602 508.365 670.266 509.643 669.921 510.918L670.403 511.048C670.057 512.327 669.703 513.601 669.339 514.872L668.858 514.735C668.495 516.003 668.123 517.268 667.743 518.529L668.221 518.674C667.839 519.94 667.448 521.202 667.048 522.461L666.572 522.309C666.171 523.57 665.762 524.827 665.344 526.079L665.819 526.237C665.4 527.492 664.973 528.743 664.537 529.99L664.065 529.825C663.629 531.07 663.185 532.31 662.733 533.547L663.203 533.719C662.747 534.963 662.283 536.203 661.81 537.439L661.344 537.26C660.872 538.494 660.391 539.724 659.902 540.95L660.367 541.135C659.877 542.363 659.378 543.586 658.871 544.805L658.41 544.613C657.903 545.833 657.387 547.048 656.863 548.258L657.322 548.457C656.796 549.672 656.262 550.882 655.719 552.088L655.263 551.883C654.721 553.087 654.171 554.286 653.613 555.481L654.066 555.693C653.506 556.89 652.938 558.083 652.362 559.271L651.912 559.052C651.336 560.242 650.75 561.426 650.157 562.606L650.604 562.831C650.009 564.012 649.407 565.19 648.796 566.362L648.353 566.131C647.743 567.301 647.125 568.466 646.5 569.626L646.94 569.863C646.311 571.028 645.675 572.188 645.031 573.342L644.594 573.099C643.951 574.252 643.299 575.401 642.639 576.544L643.072 576.794C642.412 577.939 641.743 579.079 641.066 580.214L640.637 579.958C639.961 581.091 639.277 582.22 638.586 583.343L639.011 583.605C638.318 584.732 637.616 585.854 636.906 586.97L636.484 586.702C635.776 587.816 635.06 588.924 634.337 590.028L634.755 590.302C634.03 591.407 633.297 592.507 632.557 593.601L632.143 593.321C631.403 594.415 630.655 595.503 629.9 596.586L630.31 596.872C629.553 597.957 628.789 599.036 628.017 600.11L627.611 599.818C626.841 600.889 626.063 601.955 625.278 603.015L625.68 603.313C624.893 604.376 624.098 605.433 623.296 606.484L622.899 606.18C622.098 607.23 621.289 608.274 620.474 609.312L620.867 609.621C620.05 610.66 619.226 611.694 618.395 612.722L618.006 612.407C617.176 613.433 616.338 614.453 615.494 615.467L615.878 615.787C615.032 616.803 614.178 617.814 613.318 618.818L612.938 618.492C612.079 619.494 611.213 620.49 610.34 621.48L610.715 621.811C609.84 622.802 608.959 623.788 608.07 624.766L607.7 624.43C606.813 625.408 605.919 626.379 605.018 627.343L605.383 627.685C604.481 628.651 603.571 629.611 602.655 630.564L602.294 630.218C601.38 631.17 600.459 632.115 599.531 633.053L599.886 633.405C598.957 634.345 598.021 635.279 597.078 636.206L596.727 635.849C595.786 636.775 594.839 637.693 593.885 638.605L594.23 638.967C593.274 639.88 592.312 640.787 591.343 641.687L591.003 641.321C590.036 642.219 589.062 643.111 588.082 643.995L588.417 644.366C587.436 645.252 586.449 646.131 585.455 647.003L585.125 646.627C584.133 647.498 583.135 648.361 582.13 649.217L582.455 649.598C581.448 650.456 580.436 651.307 579.417 652.151L579.098 651.765C578.082 652.607 577.06 653.442 576.032 654.269L576.345 654.659C575.316 655.487 574.28 656.309 573.238 657.123L572.93 656.729C571.89 657.542 570.844 658.347 569.792 659.146L570.094 659.544C569.041 660.343 567.982 661.135 566.918 661.919L566.621 661.517C565.559 662.299 564.491 663.074 563.418 663.842L563.709 664.249C562.633 665.018 561.552 665.779 560.465 666.533L560.18 666.122C559.095 666.875 558.005 667.62 556.909 668.357L557.188 668.772C556.092 669.509 554.991 670.239 553.884 670.961L553.61 670.543C552.505 671.263 551.395 671.977 550.279 672.682L550.546 673.105C549.428 673.811 548.305 674.51 547.176 675.202L546.915 674.775C545.791 675.464 544.661 676.145 543.525 676.818L543.78 677.248C542.644 677.922 541.502 678.588 540.355 679.246L540.107 678.813C538.962 679.47 537.812 680.119 536.657 680.76L536.9 681.197C535.744 681.839 534.583 682.472 533.417 683.098L533.18 682.657C532.019 683.28 530.852 683.895 529.681 684.502L529.911 684.946C528.737 685.555 527.559 686.155 526.375 686.746L526.152 686.299C524.971 686.89 523.785 687.473 522.594 688.047L522.811 688.497C521.622 689.071 520.429 689.636 519.23 690.193L519.02 689.74C517.824 690.296 516.623 690.843 515.418 691.383L515.623 691.839C514.416 692.379 513.204 692.911 511.988 693.435L511.79 692.976C510.578 693.497 509.363 694.01 508.142 694.515L508.333 694.977C507.113 695.481 505.889 695.978 504.66 696.465L504.476 696C503.25 696.487 502.019 696.965 500.784 697.435L500.962 697.903C499.725 698.373 498.484 698.835 497.239 699.288L497.068 698.818C495.831 699.268 494.589 699.71 493.344 700.143L493.508 700.615C492.261 701.049 491.009 701.475 489.753 701.891L489.596 701.417C488.342 701.833 487.085 702.24 485.824 702.638L485.974 703.115C484.716 703.513 483.453 703.902 482.186 704.282L482.043 703.803C480.781 704.182 479.515 704.552 478.246 704.913L478.383 705.394C477.111 705.756 475.836 706.109 474.557 706.453L474.427 705.971C473.152 706.314 471.874 706.648 470.591 706.974L470.714 707.458C469.437 707.782 468.155 708.098 466.871 708.404L466.755 707.918C465.472 708.224 464.186 708.521 462.897 708.809L463.006 709.297C461.715 709.586 460.42 709.866 459.121 710.136L459.019 709.647C457.73 709.916 456.438 710.175 455.142 710.426L455.237 710.917C453.942 711.168 452.644 711.409 451.343 711.642L451.255 711.15C449.955 711.382 448.653 711.606 447.348 711.82L447.429 712.313C446.123 712.527 444.815 712.732 443.504 712.928L443.43 712.434C442.129 712.628 440.826 712.813 439.52 712.99L439.587 713.485C438.278 713.662 436.967 713.829 435.653 713.987L435.593 713.491C434.281 713.649 432.966 713.798 431.649 713.938L431.702 714.435C430.39 714.574 429.076 714.704 427.759 714.825L427.714 714.327C426.404 714.447 425.091 714.558 423.775 714.66L423.814 715.158C422.496 715.26 421.175 715.353 419.852 715.437L419.821 714.938C418.502 715.021 417.18 715.096 415.856 715.161L415.881 715.66C414.567 715.725 413.251 715.78 411.932 715.826L411.915 715.326C410.598 715.373 409.28 715.41 407.959 715.437L407.969 715.937C406.646 715.965 405.321 715.984 403.993 715.993L403.99 715.493C403.327 715.498 402.664 715.5 402 715.5C401.336 715.5 400.673 715.498 400.011 715.493L400.007 715.993C398.68 715.984 397.354 715.965 396.031 715.937L396.041 715.437C394.721 715.41 393.402 715.373 392.086 715.327L392.068 715.826C390.75 715.78 389.433 715.725 388.12 715.66L388.144 715.161C386.82 715.096 385.498 715.021 384.179 714.938L384.148 715.437C382.825 715.353 381.504 715.26 380.187 715.158L380.225 714.66C378.91 714.558 377.597 714.447 376.286 714.327L376.241 714.825C374.924 714.704 373.61 714.574 372.299 714.435L372.351 713.938C371.034 713.798 369.719 713.649 368.407 713.491L368.348 713.987C367.033 713.829 365.722 713.662 364.413 713.485L364.48 712.99C363.174 712.813 361.871 712.628 360.57 712.434L360.497 712.928C359.185 712.732 357.877 712.527 356.571 712.313L356.652 711.82C355.347 711.606 354.045 711.382 352.746 711.15L352.658 711.642C351.356 711.409 350.058 711.168 348.763 710.917L348.858 710.426C347.562 710.175 346.27 709.916 344.981 709.647L344.879 710.136C343.581 709.866 342.286 709.586 340.994 709.297L341.103 708.809C339.814 708.521 338.528 708.224 337.245 707.918L337.129 708.404C335.845 708.098 334.563 707.782 333.286 707.458L333.409 706.974C332.127 706.648 330.848 706.314 329.573 705.971L329.443 706.453C328.164 706.109 326.889 705.756 325.617 705.394L325.754 704.913C324.485 704.552 323.219 704.182 321.958 703.803L321.814 704.282C320.547 703.902 319.285 703.513 318.026 703.115L318.176 702.638C316.915 702.24 315.658 701.833 314.404 701.417L314.247 701.891C312.991 701.475 311.739 701.049 310.492 700.616L310.656 700.143C309.411 699.71 308.169 699.268 306.932 698.818L306.761 699.288C305.516 698.835 304.275 698.373 303.038 697.903L303.216 697.435C301.981 696.965 300.75 696.487 299.524 696L299.34 696.465C298.111 695.978 296.887 695.481 295.667 694.977L295.858 694.515C294.637 694.01 293.422 693.497 292.21 692.976L292.012 693.435C290.796 692.911 289.584 692.379 288.377 691.839L288.582 691.383C287.377 690.843 286.176 690.296 284.98 689.74L284.77 690.193C283.571 689.636 282.378 689.071 281.189 688.497L281.406 688.047C280.215 687.473 279.029 686.89 277.848 686.299L277.624 686.746C276.441 686.154 275.263 685.555 274.089 684.946L274.319 684.502C273.148 683.895 271.981 683.28 270.82 682.657L270.583 683.098C269.417 682.472 268.256 681.839 267.1 681.197L267.343 680.76C266.188 680.119 265.038 679.47 263.893 678.813L263.644 679.246C262.498 678.588 261.356 677.922 260.219 677.248L260.474 676.818C259.339 676.145 258.209 675.464 257.085 674.775L256.823 675.202C255.695 674.51 254.571 673.811 253.454 673.105L253.721 672.682C252.605 671.977 251.494 671.263 250.389 670.542L250.116 670.961C249.009 670.239 247.908 669.509 246.812 668.772L247.091 668.357C245.995 667.62 244.904 666.875 243.82 666.122L243.535 666.533C242.448 665.779 241.367 665.017 240.291 664.248L240.582 663.842C239.509 663.074 238.441 662.299 237.379 661.517L237.082 661.919C236.017 661.135 234.958 660.343 233.905 659.544L234.208 659.145C233.156 658.347 232.11 657.542 231.07 656.729L230.762 657.123C229.72 656.309 228.684 655.487 227.654 654.658L227.968 654.269C226.94 653.441 225.918 652.607 224.902 651.765L224.583 652.15C223.564 651.307 222.551 650.456 221.545 649.598L221.87 649.217C220.865 648.361 219.867 647.497 218.875 646.627L218.545 647.003C217.551 646.131 216.564 645.252 215.582 644.366L215.918 643.995C214.938 643.11 213.964 642.219 212.997 641.321L212.657 641.687C211.688 640.787 210.726 639.88 209.77 638.967L210.115 638.605C209.161 637.693 208.213 636.775 207.272 635.849L206.922 636.206C205.979 635.279 205.043 634.345 204.113 633.405L204.469 633.053C203.541 632.115 202.62 631.169 201.705 630.218L201.345 630.564C200.429 629.611 199.519 628.651 198.617 627.684L198.982 627.343C198.081 626.379 197.187 625.408 196.3 624.43L195.93 624.766C195.041 623.787 194.16 622.802 193.285 621.811L193.66 621.48C192.787 620.49 191.921 619.494 191.062 618.492L190.682 618.817C189.822 617.813 188.968 616.803 188.122 615.787L188.506 615.467C187.661 614.453 186.824 613.433 185.994 612.407L185.605 612.722C184.774 611.694 183.95 610.66 183.133 609.62L183.526 609.312C182.71 608.274 181.902 607.23 181.101 606.18L180.704 606.484C179.902 605.432 179.107 604.376 178.32 603.313L178.722 603.015C177.937 601.955 177.159 600.889 176.388 599.818L175.982 600.11C175.211 599.036 174.447 597.957 173.69 596.872L174.1 596.586C173.345 595.503 172.597 594.415 171.857 593.321L171.443 593.601C170.703 592.507 169.97 591.407 169.245 590.302L169.663 590.027C168.94 588.924 168.224 587.815 167.516 586.701L167.094 586.97C166.384 585.854 165.682 584.732 164.989 583.605L165.414 583.343C164.723 582.22 164.039 581.091 163.363 579.958L162.934 580.214C162.257 579.079 161.588 577.939 160.927 576.793L161.361 576.544C160.701 575.4 160.049 574.252 159.406 573.099L158.969 573.342C158.325 572.188 157.688 571.028 157.06 569.863L157.5 569.626C156.875 568.466 156.257 567.301 155.647 566.131L155.204 566.362C154.593 565.189 153.991 564.012 153.396 562.831L153.843 562.606C153.25 561.426 152.664 560.242 152.088 559.052L151.638 559.271C151.062 558.083 150.494 556.89 149.934 555.693L150.387 555.481C149.829 554.286 149.279 553.087 148.737 551.883L148.281 552.088C147.738 550.882 147.204 549.672 146.678 548.457L147.137 548.258C146.613 547.048 146.097 545.833 145.59 544.613L145.129 544.805C144.622 543.586 144.123 542.363 143.634 541.135L144.098 540.95C143.609 539.724 143.128 538.495 142.657 537.261L142.19 537.439C141.717 536.203 141.253 534.963 140.797 533.719L141.267 533.547C140.815 532.31 140.371 531.07 139.935 529.825L139.463 529.99C139.027 528.743 138.6 527.492 138.181 526.238L138.656 526.079C138.238 524.827 137.829 523.57 137.428 522.31L136.952 522.461C136.552 521.203 136.161 519.94 135.779 518.674L136.257 518.53C135.877 517.268 135.505 516.004 135.142 514.735L134.661 514.872C134.297 513.601 133.943 512.327 133.597 511.048L134.079 510.918C133.734 509.643 133.398 508.365 133.071 507.083L132.587 507.207C132.261 505.929 131.944 504.649 131.636 503.364L132.122 503.248C131.814 501.966 131.516 500.68 131.226 499.391L130.738 499.501C130.448 498.21 130.167 496.915 129.895 495.617L130.384 495.515C130.114 494.226 129.853 492.934 129.601 491.638L129.11 491.734C128.858 490.439 128.615 489.141 128.381 487.84L128.873 487.751C128.64 486.452 128.415 485.15 128.2 483.845L127.707 483.927C127.491 482.621 127.285 481.313 127.088 480.002L127.583 479.927C127.387 478.627 127.201 477.324 127.024 476.018L126.528 476.085C126.351 474.777 126.183 473.466 126.023 472.152L126.52 472.092C126.361 470.78 126.211 469.465 126.071 468.148L125.574 468.201C125.434 466.89 125.303 465.576 125.182 464.259L125.68 464.213C125.559 462.903 125.447 461.59 125.345 460.275L124.846 460.313C124.744 458.996 124.65 457.675 124.566 456.352L125.065 456.321C124.981 455.002 124.906 453.68 124.841 452.356L124.342 452.38C124.277 451.067 124.221 449.751 124.175 448.432L124.674 448.414C124.628 447.098 124.591 445.78 124.563 444.459L124.063 444.469C124.035 443.146 124.016 441.821 124.007 440.493L124.507 440.49C124.502 439.827 124.5 439.164 124.5 438.5C124.5 437.836 124.502 437.173 124.507 436.511L124.007 436.507C124.016 435.18 124.035 433.854 124.063 432.531L124.563 432.542C124.591 431.221 124.628 429.902 124.674 428.586L124.175 428.568C124.221 427.25 124.277 425.934 124.342 424.62L124.841 424.645C124.906 423.32 124.981 421.999 125.065 420.68L124.566 420.648C124.65 419.325 124.744 418.005 124.846 416.687L125.345 416.726C125.447 415.41 125.559 414.097 125.68 412.787L125.182 412.741C125.303 411.425 125.434 410.111 125.574 408.799L126.071 408.852C126.211 407.535 126.361 406.22 126.52 404.909L126.023 404.849C126.183 403.534 126.351 402.223 126.528 400.915L127.024 400.982C127.201 399.676 127.387 398.373 127.583 397.073L127.088 396.999C127.285 395.687 127.491 394.379 127.707 393.074L128.2 393.155C128.415 391.85 128.64 390.548 128.873 389.249L128.381 389.161C128.615 387.859 128.858 386.561 129.11 385.266L129.601 385.362C129.853 384.067 130.114 382.774 130.384 381.485L129.895 381.383C130.167 380.085 130.448 378.79 130.738 377.499L131.226 377.609C131.516 376.32 131.814 375.035 132.122 373.753L131.636 373.636C131.944 372.352 132.261 371.071 132.587 369.794L133.071 369.917C133.398 368.635 133.734 367.357 134.079 366.082L133.597 365.952C133.943 364.673 134.297 363.399 134.661 362.128L135.142 362.265C135.505 360.997 135.877 359.732 136.257 358.471L135.779 358.326C136.161 357.06 136.552 355.798 136.952 354.539L137.428 354.691C137.829 353.43 138.238 352.173 138.656 350.921L138.181 350.763C138.6 349.508 139.027 348.257 139.463 347.01L139.935 347.175C140.371 345.93 140.815 344.69 141.267 343.453L140.797 343.281C141.253 342.037 141.717 340.797 142.189 339.561L142.657 339.74C143.128 338.506 143.609 337.276 144.098 336.05L143.633 335.865C144.123 334.637 144.622 333.414 145.129 332.195L145.59 332.387C146.097 331.167 146.613 329.952 147.137 328.742L146.678 328.543C147.204 327.328 147.738 326.118 148.281 324.912L148.737 325.117C149.279 323.913 149.829 322.714 150.387 321.519L149.934 321.307C150.494 320.11 151.062 318.917 151.638 317.729L152.088 317.948C152.664 316.758 153.25 315.574 153.843 314.394L153.396 314.169C153.991 312.988 154.593 311.81 155.204 310.638L155.647 310.869C156.257 309.699 156.875 308.534 157.5 307.374L157.06 307.137C157.689 305.972 158.325 304.812 158.969 303.658L159.406 303.901C160.049 302.748 160.701 301.599 161.361 300.456L160.928 300.206C161.588 299.061 162.257 297.921 162.934 296.786L163.363 297.042C164.039 295.909 164.723 294.78 165.414 293.657L164.989 293.395C165.683 292.268 166.384 291.146 167.094 290.03L167.516 290.298C168.224 289.184 168.94 288.076 169.663 286.972L169.245 286.698C169.97 285.593 170.703 284.493 171.443 283.399L171.857 283.679C172.597 282.585 173.345 281.497 174.1 280.414L173.69 280.128C174.447 279.043 175.211 277.964 175.983 276.89L176.389 277.182C177.159 276.111 177.937 275.045 178.722 273.985L178.32 273.687C179.107 272.624 179.902 271.567 180.704 270.516L181.101 270.82C181.902 269.77 182.711 268.726 183.526 267.688L183.133 267.379C183.95 266.34 184.774 265.306 185.605 264.278L185.994 264.593C186.824 263.567 187.662 262.547 188.506 261.533L188.122 261.213C188.968 260.197 189.822 259.186 190.682 258.182L191.062 258.508C191.921 257.506 192.787 256.51 193.66 255.52L193.285 255.189C194.16 254.198 195.041 253.212 195.93 252.234L196.3 252.57C197.187 251.592 198.081 250.621 198.982 249.657L198.617 249.315C199.519 248.349 200.429 247.389 201.345 246.436L201.706 246.782C202.62 245.83 203.541 244.885 204.469 243.947L204.114 243.595C205.043 242.655 205.979 241.721 206.922 240.794L207.273 241.151C208.214 240.225 209.161 239.307 210.115 238.395L209.77 238.033C210.726 237.12 211.688 236.213 212.657 235.313L212.997 235.679C213.964 234.781 214.938 233.889 215.918 233.005L215.583 232.634C216.564 231.748 217.551 230.869 218.545 229.997L218.875 230.373C219.867 229.502 220.865 228.639 221.87 227.783L221.545 227.402C222.552 226.544 223.564 225.693 224.583 224.849L224.902 225.235C225.918 224.393 226.94 223.558 227.968 222.731L227.655 222.341C228.684 221.513 229.72 220.691 230.762 219.877L231.07 220.271C232.11 219.458 233.156 218.653 234.208 217.854L233.906 217.456C234.959 216.657 236.018 215.865 237.082 215.081L237.379 215.483C238.441 214.701 239.509 213.926 240.582 213.158L240.291 212.751C241.367 211.982 242.448 211.221 243.535 210.467L243.82 210.878C244.905 210.125 245.995 209.38 247.091 208.643L246.812 208.228C247.908 207.491 249.009 206.761 250.116 206.039L250.39 206.457C251.495 205.737 252.605 205.023 253.721 204.318L253.454 203.895C254.572 203.189 255.695 202.49 256.824 201.798L257.085 202.225C258.209 201.536 259.339 200.855 260.475 200.182L260.22 199.752C261.356 199.078 262.498 198.412 263.645 197.754L263.893 198.187C265.038 197.53 266.188 196.881 267.343 196.24L267.1 195.803C268.256 195.161 269.417 194.528 270.583 193.902L270.82 194.343C271.981 193.72 273.148 193.105 274.319 192.498L274.089 192.054C275.263 191.446 276.441 190.845 277.625 190.254L277.848 190.701C279.029 190.11 280.215 189.527 281.406 188.953L281.189 188.503C282.378 187.929 283.571 187.364 284.77 186.807L284.98 187.26C286.176 186.704 287.377 186.157 288.582 185.617L288.377 185.161C289.585 184.621 290.796 184.089 292.012 183.565L292.21 184.024C293.422 183.503 294.637 182.99 295.858 182.485L295.667 182.023C296.887 181.519 298.111 181.022 299.34 180.535L299.524 181C300.75 180.513 301.981 180.035 303.216 179.565L303.038 179.097C304.275 178.627 305.516 178.165 306.761 177.712L306.932 178.182C308.169 177.732 309.411 177.29 310.656 176.857L310.492 176.384C311.739 175.951 312.991 175.525 314.247 175.109L314.404 175.583C315.658 175.167 316.915 174.76 318.176 174.362L318.026 173.885C319.284 173.487 320.547 173.098 321.814 172.718L321.957 173.197C323.219 172.818 324.485 172.448 325.754 172.087L325.617 171.606C326.889 171.244 328.164 170.891 329.443 170.547L329.573 171.029C330.848 170.686 332.126 170.352 333.409 170.027L333.286 169.542C334.563 169.218 335.845 168.902 337.129 168.596L337.245 169.082C338.528 168.776 339.814 168.479 341.103 168.191L340.994 167.703C342.285 167.414 343.58 167.134 344.879 166.864L344.981 167.353C346.27 167.084 347.562 166.825 348.858 166.574L348.763 166.083C350.058 165.832 351.356 165.591 352.657 165.358L352.745 165.85C354.045 165.618 355.347 165.394 356.652 165.18L356.571 164.687C357.877 164.473 359.185 164.268 360.496 164.072L360.57 164.566C361.871 164.372 363.174 164.187 364.48 164.01L364.413 163.515C365.722 163.338 367.033 163.171 368.347 163.013L368.407 163.509C369.719 163.351 371.034 163.202 372.351 163.062L372.298 162.565C373.61 162.426 374.924 162.296 376.24 162.175L376.286 162.673C377.596 162.553 378.909 162.442 380.225 162.34L380.186 161.842C381.504 161.74 382.825 161.647 384.148 161.563L384.179 162.062C385.498 161.979 386.82 161.904 388.144 161.839L388.119 161.34C389.433 161.275 390.749 161.22 392.068 161.174L392.085 161.673C393.402 161.627 394.72 161.59 396.041 161.563L396.031 161.063C397.354 161.035 398.679 161.016 400.007 161.007L400.01 161.507C400.673 161.502 401.336 161.5 402 161.5C402.664 161.5 403.327 161.502 403.989 161.507L403.993 161.007C405.32 161.016 406.646 161.035 407.969 161.063L407.959 161.563C409.279 161.59 410.598 161.627 411.914 161.673L411.932 161.174C413.25 161.22 414.567 161.275 415.88 161.34L415.856 161.839C417.18 161.904 418.502 161.979 419.821 162.062L419.852 161.563C421.175 161.647 422.496 161.74 423.813 161.842L423.775 162.34C425.09 162.442 426.403 162.553 427.714 162.673L427.759 162.175C429.076 162.296 430.39 162.426 431.701 162.565L431.649 163.062C432.966 163.202 434.281 163.351 435.593 163.509L435.652 163.013C436.967 163.171 438.278 163.338 439.587 163.515L439.52 164.01C440.826 164.187 442.129 164.372 443.43 164.566L443.503 164.072C444.815 164.268 446.123 164.473 447.429 164.687L447.348 165.18C448.653 165.394 449.955 165.618 451.254 165.85L451.342 165.358C452.644 165.59 453.942 165.832 455.237 166.083L455.142 166.574C456.438 166.825 457.73 167.084 459.019 167.353L459.121 166.864C460.419 167.134 461.714 167.414 463.006 167.703L462.897 168.191C464.186 168.479 465.472 168.776 466.755 169.082L466.871 168.596C468.155 168.902 469.437 169.218 470.714 169.542L470.591 170.026C471.873 170.352 473.152 170.686 474.427 171.029L474.557 170.547C475.836 170.891 477.111 171.244 478.383 171.606L478.246 172.087C479.515 172.448 480.781 172.818 482.042 173.197L482.186 172.718C483.453 173.098 484.715 173.487 485.974 173.885L485.824 174.362C487.085 174.76 488.342 175.167 489.596 175.583L489.753 175.109C491.009 175.525 492.261 175.951 493.508 176.384L493.344 176.857C494.589 177.29 495.831 177.732 497.068 178.182L497.239 177.712C498.484 178.165 499.725 178.627 500.962 179.097L500.784 179.565C502.019 180.035 503.25 180.513 504.476 181L504.66 180.535C505.889 181.022 507.113 181.519 508.333 182.023L508.142 182.485C509.363 182.99 510.578 183.503 511.79 184.024L511.988 183.565C513.204 184.089 514.416 184.621 515.623 185.161L515.418 185.617C516.623 186.157 517.824 186.704 519.02 187.26L519.23 186.807C520.429 187.364 521.622 187.929 522.811 188.503L522.594 188.953C523.785 189.527 524.971 190.11 526.152 190.701L526.376 190.254C527.559 190.845 528.737 191.446 529.911 192.054L529.681 192.498C530.852 193.105 532.019 193.72 533.18 194.343L533.417 193.902C534.583 194.528 535.744 195.162 536.9 195.803L536.657 196.24C537.812 196.881 538.962 197.53 540.107 198.187L540.356 197.754C541.502 198.412 542.644 199.078 543.781 199.752L543.526 200.182C544.661 200.855 545.791 201.536 546.915 202.225L547.177 201.798C548.305 202.49 549.429 203.189 550.546 203.895L550.279 204.318C551.395 205.023 552.506 205.737 553.611 206.458L553.884 206.039C554.991 206.761 556.092 207.491 557.188 208.228L556.909 208.643C558.005 209.38 559.096 210.125 560.18 210.878L560.465 210.467C561.552 211.221 562.633 211.983 563.709 212.752L563.418 213.158C564.491 213.926 565.559 214.701 566.621 215.483L566.918 215.081C567.983 215.865 569.042 216.657 570.095 217.456L569.792 217.855C570.844 218.653 571.89 219.458 572.93 220.271L573.238 219.877C574.28 220.691 575.316 221.513 576.346 222.342L576.032 222.731C577.06 223.559 578.082 224.393 579.098 225.235L579.417 224.85C580.436 225.693 581.449 226.544 582.455 227.402L582.13 227.783C583.135 228.639 584.133 229.503 585.125 230.373L585.455 229.997C586.449 230.869 587.436 231.748 588.418 232.634L588.082 233.005C589.062 233.89 590.036 234.781 591.003 235.679L591.343 235.313C592.312 236.213 593.274 237.12 594.23 238.033L593.885 238.395C594.839 239.307 595.786 240.225 596.728 241.151L597.078 240.794C598.021 241.721 598.957 242.655 599.887 243.595L599.531 243.947C600.459 244.885 601.38 245.831 602.295 246.782L602.655 246.436C603.571 247.389 604.481 248.349 605.383 249.316L605.018 249.657C605.919 250.621 606.813 251.592 607.7 252.57L608.07 252.234C608.959 253.213 609.84 254.198 610.715 255.189L610.34 255.52C611.213 256.51 612.079 257.506 612.938 258.508L613.318 258.183C614.178 259.187 615.032 260.197 615.878 261.213L615.494 261.533C616.339 262.547 617.176 263.567 618.006 264.593L618.395 264.278C619.226 265.306 620.05 266.34 620.867 267.38L620.474 267.688C621.29 268.726 622.098 269.77 622.899 270.82L623.296 270.516C624.098 271.568 624.893 272.624 625.68 273.687L625.278 273.985C626.063 275.045 626.841 276.111 627.612 277.182L628.017 276.89C628.789 277.964 629.553 279.043 630.31 280.128L629.9 280.414C630.655 281.497 631.403 282.585 632.143 283.679L632.557 283.399C633.297 284.493 634.03 285.593 634.755 286.698L634.337 286.973C635.06 288.076 635.776 289.185 636.484 290.299L636.906 290.03C637.616 291.146 638.318 292.268 639.011 293.395L638.586 293.657C639.277 294.78 639.961 295.909 640.637 297.042L641.066 296.786C641.743 297.921 642.412 299.061 643.073 300.207L642.639 300.456C643.299 301.6 643.951 302.748 644.594 303.901L645.031 303.658C645.675 304.812 646.312 305.972 646.94 307.137L646.5 307.374C647.125 308.534 647.743 309.699 648.353 310.869L648.796 310.638C649.407 311.811 650.01 312.988 650.604 314.169L650.157 314.394C650.75 315.574 651.336 316.758 651.912 317.948L652.362 317.73C652.938 318.917 653.506 320.11 654.066 321.307L653.613 321.519C654.171 322.714 654.721 323.913 655.263 325.117L655.719 324.912C656.262 326.118 656.796 327.328 657.322 328.543L656.863 328.742C657.387 329.952 657.903 331.167 658.41 332.387L658.871 332.195C659.378 333.414 659.877 334.637 660.367 335.865L659.902 336.05C660.391 337.276 660.872 338.505 661.343 339.739L661.81 339.561C662.283 340.797 662.747 342.037 663.203 343.281L662.733 343.453C663.185 344.69 663.629 345.93 664.065 347.175L664.537 347.01C664.973 348.257 665.4 349.508 665.819 350.762L665.344 350.921C665.762 352.173 666.171 353.43 666.572 354.69L667.048 354.539C667.448 355.798 667.839 357.06 668.221 358.326L667.742 358.47C668.123 359.732 668.495 360.997 668.858 362.265L669.339 362.128C669.703 363.399 670.057 364.673 670.403 365.952L669.921 366.082C670.266 367.357 670.602 368.635 670.929 369.917L671.413 369.793C671.739 371.071 672.056 372.351 672.364 373.636L671.878 373.752C672.186 375.034 672.484 376.32 672.774 377.609L673.262 377.499C673.552 378.79 673.833 380.085 674.105 381.383L673.616 381.485C673.886 382.774 674.147 384.066 674.399 385.362L674.89 385.266C675.142 386.561 675.385 387.859 675.619 389.16L675.127 389.249C675.36 390.548 675.585 391.85 675.8 393.155L676.293 393.073C676.509 394.379 676.715 395.687 676.912 396.998L676.417 397.073C676.613 398.373 676.799 399.676 676.976 400.982L677.472 400.915C677.649 402.223 677.818 403.534 677.977 404.848L677.48 404.908C677.639 406.22 677.789 407.535 677.929 408.852L678.426 408.799C678.566 410.11 678.697 411.424 678.818 412.741L678.32 412.787C678.441 414.097 678.553 415.41 678.655 416.725L679.154 416.687C679.256 418.004 679.35 419.325 679.434 420.648L678.935 420.679C679.019 421.998 679.094 423.32 679.159 424.644L679.658 424.619C679.723 425.933 679.779 427.249 679.825 428.568L679.326 428.586C679.372 429.902 679.409 431.22 679.437 432.541L679.937 432.531Z" stroke="#C0CADF" stroke-dasharray="4 4"></path><circle cx="402" cy="402" r="401.5" stroke="#C0CADF" stroke-dasharray="4 4"></circle></svg>