<svg xmlns="http://www.w3.org/2000/svg" width="45" height="45" viewBox="0 0 45 45" fill="none"><path d="M16.1719 27.4219V19.6875C16.1719 19.501 16.0978 19.3222 15.9659 19.1903C15.8341 19.0585 15.6552 18.9844 15.4688 18.9844H12.6562C12.4698 18.9844 12.2909 19.0585 12.1591 19.1903C12.0272 19.3222 11.9531 19.501 11.9531 19.6875V27.4219H13.3594V20.3906H14.7656V27.4219H16.1719Z" fill="#0E59F2"></path><path d="M27.4219 30.2344V20.3906C27.4219 20.2041 27.3478 20.0253 27.2159 19.8934C27.0841 19.7616 26.9052 19.6875 26.7188 19.6875H23.9062C23.7198 19.6875 23.5409 19.7616 23.4091 19.8934C23.2772 20.0253 23.2031 20.2041 23.2031 20.3906V30.2344H24.6094V21.0938H26.0156V30.2344H27.4219Z" fill="#0E59F2"></path><path d="M21.7969 30.2344V17.5781C21.7969 17.3916 21.7228 17.2128 21.5909 17.0809C21.4591 16.9491 21.2802 16.875 21.0938 16.875H18.2812C18.0948 16.875 17.9159 16.9491 17.7841 17.0809C17.6522 17.2128 17.5781 17.3916 17.5781 17.5781V28.8281H18.9844V18.2812H20.3906V30.2344H21.7969Z" fill="#0E59F2"></path><path d="M33.0469 24.6094V17.5781C33.0469 17.3916 32.9728 17.2128 32.8409 17.0809C32.7091 16.9491 32.5302 16.875 32.3438 16.875H29.5312C29.3448 16.875 29.1659 16.9491 29.0341 17.0809C28.9022 17.2128 28.8281 17.3916 28.8281 17.5781V25.3125H30.2344V18.2812H31.6406V24.6094H33.0469Z" fill="#0E59F2"></path><path d="M38.6719 23.9062V13.3594C38.6719 13.1729 38.5978 12.9941 38.4659 12.8622C38.3341 12.7303 38.1552 12.6563 37.9688 12.6562H35.1562C34.9698 12.6563 34.7909 12.7303 34.6591 12.8622C34.5272 12.9941 34.4531 13.1729 34.4531 13.3594V23.9062H35.8594V14.0625H37.2656V23.9062H38.6719Z" fill="#0E59F2"></path><path d="M12.1591 17.3722C12.2909 17.504 12.4698 17.5781 12.6563 17.5781C12.8428 17.5781 13.0216 17.504 13.1535 17.3722L18.9575 11.5681L24.7899 18.0485C24.8537 18.1194 24.9314 18.1766 25.0181 18.2166C25.1047 18.2566 25.1986 18.2785 25.2941 18.281C25.3002 18.2812 25.3063 18.2812 25.3125 18.2812C25.499 18.2812 25.6779 18.2072 25.8097 18.0753L35.1563 8.72877V10.5469C35.1563 10.7334 35.2303 10.9122 35.3622 11.0441C35.4941 11.1759 35.6729 11.25 35.8594 11.25H38.6719C38.8584 11.25 39.0372 11.1759 39.1691 11.0441C39.3009 10.9122 39.375 10.7334 39.375 10.5469V2.10938C39.375 1.9229 39.3009 1.74405 39.1691 1.61219C39.0372 1.48033 38.8584 1.40625 38.6719 1.40625H30.2344C30.0479 1.40625 29.8691 1.48033 29.7372 1.61219C29.6053 1.74405 29.5313 1.9229 29.5313 2.10938V4.92188C29.5313 5.10835 29.6053 5.2872 29.7372 5.41906C29.8691 5.55092 30.0479 5.625 30.2344 5.625H32.0525L25.3394 12.3382L19.507 5.85777C19.4432 5.78683 19.3655 5.72963 19.2789 5.68965C19.1922 5.64968 19.0983 5.62777 19.0029 5.62526C18.9074 5.62275 18.8125 5.63969 18.7239 5.67505C18.6352 5.71042 18.5547 5.76346 18.4872 5.83095L10.0497 14.2685C9.91783 14.4003 9.84375 14.5791 9.84375 14.7656C9.84375 14.9521 9.91783 15.1309 10.0497 15.2628L12.1591 17.3722ZM18.9575 7.34934L24.7899 13.8297C24.8537 13.9007 24.9314 13.9579 25.0181 13.9978C25.1047 14.0378 25.1986 14.0597 25.294 14.0622C25.3895 14.0648 25.4844 14.0478 25.573 14.0124C25.6617 13.9771 25.7422 13.924 25.8097 13.8565L34.2472 5.41905C34.3455 5.32071 34.4125 5.19542 34.4396 5.05903C34.4667 4.92264 34.4528 4.78128 34.3996 4.6528C34.3464 4.52433 34.2562 4.41452 34.1406 4.33726C34.025 4.26 33.8891 4.21876 33.75 4.21875H30.9375V2.8125H37.9688V9.84375H36.5625V7.03125C36.5625 6.89218 36.5213 6.75623 36.444 6.6406C36.3667 6.52497 36.2569 6.43485 36.1284 6.38163C36 6.32842 35.8586 6.31449 35.7222 6.34163C35.5858 6.36876 35.4605 6.43574 35.3622 6.53408L25.3394 16.5569L19.507 10.0765C19.4432 10.0056 19.3655 9.94836 19.2789 9.90839C19.1922 9.86841 19.0983 9.84651 19.0028 9.84401C18.9967 9.84383 18.9906 9.84375 18.9844 9.84375C18.7979 9.84375 18.619 9.91784 18.4872 10.0497L12.6563 15.8806L11.5412 14.7656L18.9575 7.34934Z" fill="#0E59F2"></path><path d="M7.73438 42.8911V41.4848H9.84375C10.0302 41.4848 10.2091 41.4108 10.3409 41.2789C10.4728 41.147 10.5469 40.9682 10.5469 40.7817V38.9396C13.9043 42.0214 18.3223 43.6875 22.8786 43.59C27.435 43.4926 31.7777 41.6392 35.0003 38.4166L42.6847 30.7324C43.1493 30.2678 43.428 29.6494 43.4682 28.9936C43.5085 28.3378 43.3075 27.6899 42.9031 27.172C42.4987 26.6542 41.9189 26.3021 41.273 26.1821C40.627 26.0621 39.9594 26.1825 39.396 26.5206C39.156 26.1491 38.8296 25.8413 38.4447 25.6233C38.0598 25.4054 37.6279 25.2838 37.1859 25.2691C36.7438 25.2544 36.3047 25.3469 35.9062 25.5387C35.5077 25.7305 35.1615 26.016 34.8972 26.3706L34.5991 26.7706C34.4467 26.6536 34.2835 26.5515 34.1117 26.4655C33.748 26.2836 33.3512 26.1771 32.9453 26.1524C32.5394 26.1277 32.1326 26.1853 31.7495 26.3218C31.3664 26.4582 31.0149 26.6707 30.7159 26.9464C30.417 27.2221 30.1769 27.5554 30.01 27.9263L28.2375 31.8652C27.8662 31.717 27.4701 31.6409 27.0703 31.6411H18.5725L17.3722 30.4408C16.4914 29.5624 15.3468 28.9973 14.1139 28.8319C12.881 28.6666 11.628 28.9103 10.5469 29.5255V28.8286C10.5469 28.6421 10.4728 28.4633 10.3409 28.3314C10.2091 28.1995 10.0302 28.1255 9.84375 28.1255H7.73438V27.4223C7.73437 27.2358 7.66029 27.057 7.52843 26.9251C7.39657 26.7933 7.21773 26.7192 7.03125 26.7192H1.40625V28.1255H6.32812V42.188H1.40625V43.5942H7.03125C7.21773 43.5942 7.39657 43.5201 7.52843 43.3883C7.66029 43.2564 7.73437 43.0776 7.73438 42.8911ZM37.7813 26.8642C38.0215 27.0086 38.21 27.2252 38.3199 27.483L32.741 33.062C31.9942 33.8098 31.1512 34.4547 30.2341 34.9798L36.0247 27.2111C36.2218 26.945 36.5111 26.7621 36.8359 26.6979C37.1608 26.6338 37.4978 26.6931 37.7813 26.8642ZM31.2923 28.5033C31.3815 28.3053 31.5097 28.1273 31.6693 27.9801C31.829 27.8328 32.0167 27.7194 32.2213 27.6465C32.4259 27.5736 32.6431 27.5429 32.8598 27.5561C33.0766 27.5693 33.2885 27.6261 33.4827 27.7232C33.5803 27.7722 33.6726 27.831 33.7584 27.8985L29.8004 33.2087C29.6897 33.0196 29.5598 32.8426 29.4127 32.6803L31.2923 28.5033ZM16.3778 31.4351L17.784 32.8414C17.9159 32.9732 18.0948 33.0473 18.2812 33.0473H27.0703C27.5365 33.0473 27.9836 33.2325 28.3133 33.5622C28.6429 33.8918 28.8281 34.3389 28.8281 34.8051C28.8281 35.2713 28.6429 35.7185 28.3133 36.0481C27.9836 36.3778 27.5365 36.563 27.0703 36.563H18.2812V37.9692H27.0703C27.5054 37.9693 27.9358 37.8795 28.3345 37.7053C28.7332 37.5311 29.0915 37.2764 29.3871 36.957C31.0144 36.2877 32.4924 35.3017 33.7354 34.0563L39.8721 27.9196C40.1133 27.6785 40.4403 27.543 40.7813 27.543C41.1223 27.543 41.4494 27.6785 41.6905 27.9196C41.9316 28.1608 42.0671 28.4878 42.0671 28.8288C42.0671 29.1698 41.9316 29.4969 41.6905 29.738L34.0059 37.4222C30.9543 40.4737 26.8155 42.188 22.4999 42.188C18.1844 42.1879 14.0456 40.4736 10.9941 37.422L10.5469 36.9748V31.2437C11.3622 30.5309 12.4177 30.1542 13.5001 30.1897C14.5825 30.2252 15.611 30.6704 16.3778 31.4351ZM9.14062 29.5317V40.0786H7.73438V29.5317H9.14062Z" fill="#0E59F2"></path></svg>