<svg xmlns="http://www.w3.org/2000/svg" width="40" height="40" viewBox="0 0 40 40" fill="none"><g clip-path="url(#clip0_2119_595)"><path d="M36.875 25.6875V15.5625C37.3594 15.4666 37.8143 15.2573 38.2022 14.9516C38.5901 14.646 38.9001 14.2528 39.1067 13.8042C39.3133 13.3557 39.4106 12.8645 39.3907 12.3711C39.3708 11.8776 39.2343 11.3959 38.9922 10.9654C38.7502 10.535 38.4096 10.168 37.9983 9.89458C37.5871 9.62117 37.1169 9.44912 36.6263 9.39254C36.1357 9.33597 35.6386 9.39647 35.1759 9.56909C34.7132 9.74171 34.298 10.0215 33.9644 10.3856L23.0831 3.53875C23.1063 3.40193 23.1203 3.2637 23.125 3.125C23.125 2.2962 22.7958 1.50134 22.2097 0.915291C21.6236 0.32924 20.8288 0 20 0C19.1712 0 18.3763 0.32924 17.7903 0.915291C17.2042 1.50134 16.875 2.2962 16.875 3.125C16.8797 3.2637 16.8937 3.40193 16.9169 3.53875L6.03562 10.385C5.70152 10.0243 5.28689 9.74759 4.82554 9.57755C4.36419 9.40751 3.86918 9.34892 3.38088 9.40654C2.89258 9.46417 2.42482 9.63639 2.01573 9.90915C1.60663 10.1819 1.2678 10.5475 1.02685 10.9761C0.785904 11.4047 0.649666 11.8842 0.629245 12.3755C0.608825 12.8667 0.7048 13.3559 0.909346 13.803C1.11389 14.2501 1.42122 14.6426 1.80626 14.9483C2.1913 15.2541 2.64316 15.4645 3.125 15.5625V25.6875C2.6319 25.7842 2.16938 25.9983 1.77666 26.3118C1.38395 26.6252 1.07261 27.0288 0.869047 27.4882C0.665487 27.9476 0.57571 28.4493 0.607329 28.9508C0.638947 29.4523 0.791028 29.9387 1.05068 30.3689C1.31032 30.7991 1.66988 31.1604 2.09886 31.422C2.52784 31.6837 3.01359 31.838 3.51492 31.872C4.01626 31.906 4.51839 31.8185 4.97873 31.6171C5.43908 31.4157 5.84408 31.1063 6.15937 30.715L16.905 36.5769C16.8956 36.6763 16.875 36.7725 16.875 36.8744C16.875 37.7032 17.2042 38.498 17.7903 39.0841C18.3763 39.6701 19.1712 39.9994 20 39.9994C20.8288 39.9994 21.6236 39.6701 22.2097 39.0841C22.7958 38.498 23.125 37.7032 23.125 36.8744C23.125 36.7725 23.1044 36.6763 23.095 36.5769L33.8406 30.715C34.1566 31.1022 34.561 31.4078 35.0198 31.606C35.4785 31.8043 35.9782 31.8893 36.4768 31.854C36.9753 31.8187 37.458 31.6641 37.8843 31.4032C38.3105 31.1423 38.6678 30.7828 38.9261 30.3549C39.1843 29.927 39.3359 29.4434 39.3682 28.9446C39.4004 28.4459 39.3122 27.9467 39.1112 27.4892C38.9101 27.0317 38.602 26.6292 38.2128 26.3156C37.8237 26.002 37.3648 25.7866 36.875 25.6875ZM36.25 10.625C36.6208 10.625 36.9833 10.735 37.2917 10.941C37.6 11.147 37.8403 11.4399 37.9823 11.7825C38.1242 12.1251 38.1613 12.5021 38.089 12.8658C38.0166 13.2295 37.838 13.5636 37.5758 13.8258C37.3136 14.088 36.9795 14.2666 36.6158 14.339C36.2521 14.4113 35.8751 14.3742 35.5325 14.2323C35.1898 14.0904 34.897 13.85 34.691 13.5417C34.485 13.2334 34.375 12.8708 34.375 12.5C34.375 12.0027 34.5725 11.5258 34.9242 11.1742C35.2758 10.8225 35.7527 10.625 36.25 10.625ZM20 1.25C20.3708 1.25 20.7333 1.35997 21.0417 1.56599C21.35 1.77202 21.5904 2.06486 21.7323 2.40747C21.8742 2.75008 21.9113 3.12708 21.839 3.49079C21.7666 3.85451 21.588 4.1886 21.3258 4.45083C21.0636 4.71305 20.7295 4.89162 20.3658 4.96397C20.0021 5.03632 19.6251 4.99919 19.2825 4.85727C18.9399 4.71536 18.647 4.47504 18.441 4.16669C18.235 3.85835 18.125 3.49584 18.125 3.125C18.125 2.62772 18.3225 2.15081 18.6742 1.79917C19.0258 1.44754 19.5027 1.25 20 1.25ZM1.875 12.5C1.875 12.1292 1.98496 11.7666 2.19099 11.4583C2.39702 11.15 2.68985 10.9096 3.03246 10.7677C3.37508 10.6258 3.75208 10.5887 4.11579 10.661C4.4795 10.7334 4.8136 10.912 5.07582 11.1742C5.33804 11.4364 5.51662 11.7705 5.58897 12.1342C5.66132 12.4979 5.62418 12.8749 5.48227 13.2175C5.34036 13.5601 5.10003 13.853 4.79169 14.059C4.48335 14.265 4.12084 14.375 3.75 14.375C3.25272 14.375 2.7758 14.1775 2.42417 13.8258C2.07254 13.4742 1.875 12.9973 1.875 12.5ZM3.75 30.625C3.37916 30.625 3.01664 30.515 2.7083 30.309C2.39996 30.103 2.15964 29.8101 2.01772 29.4675C1.87581 29.1249 1.83868 28.7479 1.91102 28.3842C1.98337 28.0205 2.16195 27.6864 2.42417 27.4242C2.68639 27.162 3.02049 26.9834 3.3842 26.911C3.74792 26.8387 4.12492 26.8758 4.46753 27.0177C4.81014 27.1596 5.10297 27.4 5.309 27.7083C5.51503 28.0166 5.625 28.3792 5.625 28.75C5.625 29.2473 5.42745 29.7242 5.07582 30.0758C4.72419 30.4275 4.24728 30.625 3.75 30.625ZM20 38.75C19.6292 38.75 19.2666 38.64 18.9583 38.434C18.65 38.228 18.4096 37.9351 18.2677 37.5925C18.1258 37.2499 18.0887 36.8729 18.161 36.5092C18.2334 36.1455 18.4119 35.8114 18.6742 35.5492C18.9364 35.287 19.2705 35.1084 19.6342 35.036C19.9979 34.9637 20.3749 35.0008 20.7175 35.1427C21.0601 35.2846 21.353 35.525 21.559 35.8333C21.765 36.1416 21.875 36.5042 21.875 36.875C21.875 37.3723 21.6774 37.8492 21.3258 38.2008C20.9742 38.5525 20.4973 38.75 20 38.75ZM22.7162 35.36C22.4496 34.8726 22.0567 34.466 21.5788 34.1827C21.1009 33.8994 20.5556 33.7499 20 33.7499C19.4444 33.7499 18.8991 33.8994 18.4212 34.1827C17.9433 34.466 17.5504 34.8726 17.2837 35.36L6.74 29.61C6.82553 29.3312 6.87099 29.0416 6.875 28.75C6.87409 28.0299 6.62494 27.3321 6.16955 26.7742C5.71415 26.2164 5.08036 25.8326 4.375 25.6875V15.5625C5.08036 15.4174 5.71415 15.0336 6.16955 14.4758C6.62494 13.9179 6.87409 13.2201 6.875 12.5C6.8715 12.1431 6.80616 11.7896 6.68187 11.455L17.3425 4.75C17.6185 5.20769 18.0081 5.58629 18.4735 5.8491C18.9389 6.11191 19.4643 6.25001 19.9987 6.25001C20.5332 6.25001 21.0586 6.11191 21.524 5.8491C21.9894 5.58629 22.379 5.20769 22.655 4.75L33.3181 11.455C33.1938 11.7896 33.1285 12.1431 33.125 12.5C33.1259 13.2201 33.375 13.9179 33.8304 14.4758C34.2858 15.0336 34.9196 15.4174 35.625 15.5625V25.6875C34.9196 25.8326 34.2858 26.2164 33.8304 26.7742C33.375 27.3321 33.1259 28.0299 33.125 28.75C33.1291 29.0412 33.1746 29.3303 33.26 29.6087L22.7162 35.36ZM36.25 30.625C35.8792 30.625 35.5166 30.515 35.2083 30.309C34.9 30.103 34.6596 29.8101 34.5177 29.4675C34.3758 29.1249 34.3387 28.7479 34.411 28.3842C34.4834 28.0205 34.6619 27.6864 34.9242 27.4242C35.1864 27.162 35.5205 26.9834 35.8842 26.911C36.2479 26.8387 36.6249 26.8758 36.9675 27.0177C37.3101 27.1596 37.603 27.4 37.809 27.7083C38.015 28.0166 38.125 28.3792 38.125 28.75C38.125 29.2473 37.9274 29.7242 37.5758 30.0758C37.2242 30.4275 36.7473 30.625 36.25 30.625Z" fill="#0E59F2"></path><path d="M15.5475 19.4068C15.1404 19.2735 14.7838 19.0191 14.5251 18.6777C14.2665 18.3363 14.1181 17.9241 14.1 17.4962C14.0995 17.3304 14.0332 17.1716 13.9156 17.0548C13.798 16.9379 13.6389 16.8726 13.4731 16.873C13.3074 16.8735 13.1486 16.9399 13.0317 17.0574C12.9149 17.175 12.8495 17.3342 12.85 17.4999C12.8651 17.9784 12.9809 18.4484 13.1899 18.8791C13.3988 19.3099 13.6961 19.6918 14.0625 19.9999C13.6958 20.3079 13.3981 20.6897 13.1888 21.1205C12.9796 21.5513 12.8635 22.0213 12.8481 22.4999C12.8481 22.6648 12.9133 22.823 13.0294 22.9401C13.1455 23.0572 13.3032 23.1236 13.4681 23.1249H13.4731C13.6377 23.1249 13.7956 23.06 13.9126 22.9443C14.0297 22.8286 14.0963 22.6714 14.0981 22.5068C14.1162 22.0788 14.2645 21.6665 14.5232 21.325C14.7818 20.9834 15.1385 20.729 15.5456 20.5956C15.6707 20.5545 15.7795 20.4749 15.8567 20.3683C15.9339 20.2617 15.9755 20.1334 15.9755 20.0018C15.9755 19.8702 15.9339 19.7419 15.8567 19.6353C15.7795 19.5287 15.6707 19.4492 15.5456 19.4081L15.5475 19.4068Z" fill="#0E59F2"></path><path d="M30.6381 16.9948C30.8686 15.9342 30.7135 14.8263 30.2006 13.8698C29.8548 13.239 29.3674 12.6969 28.7767 12.2864C28.186 11.8758 27.5081 11.6078 26.7963 11.5035C26.5835 10.7151 26.1175 10.0184 25.4699 9.52079C24.8224 9.0232 24.0292 8.75229 23.2125 8.74978C22.5957 8.70052 21.9766 8.81011 21.4143 9.06811C20.8519 9.3261 20.365 9.72389 20 10.2235C19.6351 9.72389 19.1482 9.3261 18.5858 9.06811C18.0234 8.81011 17.4043 8.70052 16.7875 8.74978C15.9701 8.75196 15.1761 9.02309 14.5281 9.52133C13.8801 10.0196 13.414 10.7172 13.2019 11.5067C12.4901 11.6112 11.8123 11.8795 11.2218 12.2904C10.6313 12.7014 10.1442 13.2437 9.79876 13.8748C9.28679 14.8302 9.13169 15.9367 9.36126 16.996C8.93925 17.3689 8.60837 17.8335 8.39405 18.3542C8.17974 18.875 8.08769 19.4379 8.12501 19.9998C8.08796 20.5619 8.18017 21.125 8.39458 21.6459C8.60899 22.1668 8.93989 22.6316 9.36188 23.0048C9.13216 24.0643 9.28726 25.1711 9.79938 26.1267C10.1452 26.7575 10.6326 27.2995 11.2233 27.7101C11.8141 28.1207 12.492 28.3886 13.2038 28.4929C13.4159 29.282 13.8817 29.9793 14.5293 30.4775C15.1769 30.9757 15.9704 31.2471 16.7875 31.2498C17.4043 31.299 18.0234 31.1895 18.5858 30.9315C19.1482 30.6735 19.6351 30.2757 20 29.776C20.365 30.2757 20.8519 30.6735 21.4143 30.9315C21.9766 31.1895 22.5957 31.299 23.2125 31.2498C24.0299 31.2476 24.8239 30.9765 25.4719 30.4782C26.12 29.98 26.586 29.2823 26.7981 28.4929C27.5099 28.3883 28.1877 28.12 28.7782 27.7091C29.3688 27.2982 29.8559 26.7559 30.2013 26.1248C30.7132 25.1694 30.8683 24.0629 30.6388 23.0035C31.0608 22.6307 31.3917 22.1661 31.606 21.6453C31.8203 21.1246 31.9123 20.5617 31.875 19.9998C31.9121 19.4377 31.8199 18.8746 31.6054 18.3537C31.391 17.8328 31.0601 17.3679 30.6381 16.9948ZM16.7875 29.9998C16.1757 29.9903 15.5876 29.7617 15.13 29.3555C14.6724 28.9493 14.3757 28.3924 14.2938 27.786C14.2249 27.4978 14.1913 27.2023 14.1938 26.906C14.1594 26.1444 14.3946 25.3951 14.8581 24.7898C14.9155 24.7271 14.9594 24.6533 14.9873 24.573C15.0152 24.4927 15.0264 24.4076 15.0202 24.3229C15.0141 24.2381 14.9907 24.1555 14.9515 24.0801C14.9124 24.0046 14.8582 23.938 14.7925 23.8842C14.7267 23.8304 14.6506 23.7906 14.5689 23.7672C14.4872 23.7438 14.4016 23.7373 14.3173 23.7482C14.233 23.759 14.1518 23.7869 14.0787 23.8301C14.0055 23.8734 13.942 23.9311 13.8919 23.9998C13.2438 24.8268 12.9081 25.8559 12.9438 26.906C12.9438 26.9879 12.9538 27.0642 12.9569 27.1448C12.5256 27.0361 12.1215 26.8394 11.7699 26.567C11.4183 26.2947 11.1269 25.9526 10.9138 25.5623C10.5999 24.9736 10.4644 24.3062 10.5238 23.6417C10.8117 23.7373 11.1109 23.7951 11.4138 23.8135H11.4319C11.5976 23.8164 11.7577 23.7532 11.8769 23.638C11.9961 23.5228 12.0647 23.3649 12.0675 23.1992C12.0703 23.0334 12.0072 22.8733 11.892 22.7541C11.7767 22.6349 11.6189 22.5664 11.4531 22.5635C11.0815 22.5317 10.722 22.4156 10.4019 22.2242C10.0472 21.9793 9.76479 21.6437 9.58416 21.2524C9.40352 20.8612 9.33129 20.4285 9.37501 19.9998C9.33138 19.5714 9.40354 19.1391 9.58394 18.748C9.76434 18.357 10.0464 18.0215 10.4006 17.7767C10.721 17.5852 11.0807 17.469 11.4525 17.4367C11.6175 17.4311 11.7736 17.3605 11.8868 17.2402C11.9999 17.12 12.0608 16.9598 12.0563 16.7948C12.0549 16.7124 12.0371 16.6311 12.0039 16.5558C11.9707 16.4804 11.9228 16.4124 11.8629 16.3558C11.803 16.2992 11.7325 16.2551 11.6553 16.2262C11.5782 16.1972 11.4961 16.184 11.4138 16.1873C11.1109 16.2058 10.8117 16.2635 10.5238 16.3592C10.4646 15.6949 10.5999 15.0278 10.9131 14.4392C11.1262 14.0485 11.4177 13.706 11.7694 13.4334C12.1211 13.1607 12.5254 12.9637 12.9569 12.8548C12.9538 12.9348 12.9438 13.0117 12.9438 13.0935C12.9081 14.1436 13.2438 15.1727 13.8919 15.9998C13.9983 16.1237 14.1489 16.201 14.3116 16.2152C14.4743 16.2294 14.6361 16.1794 14.7624 16.0758C14.8886 15.9723 14.9694 15.8234 14.9873 15.6611C15.0051 15.4987 14.9588 15.3359 14.8581 15.2073C14.3952 14.6026 14.16 13.8543 14.1938 13.0935C14.1917 12.7915 14.2265 12.4903 14.2975 12.1967C14.3817 11.5934 14.679 11.0402 15.1358 10.6372C15.5925 10.2342 16.1785 10.0081 16.7875 9.99978C18.5531 9.99978 19.375 10.8123 19.375 12.5623V16.9085C18.851 16.3769 18.2206 15.962 17.525 15.691C17.3685 15.6363 17.1967 15.646 17.0474 15.718C16.8981 15.79 16.7835 15.9183 16.7288 16.0748C16.6741 16.2313 16.6838 16.4031 16.7557 16.5524C16.8277 16.7017 16.956 16.8163 17.1125 16.871C17.135 16.8785 19.375 17.6873 19.375 19.9998C19.3514 20.6871 19.1236 21.3518 18.7207 21.909C18.3177 22.4663 17.7578 22.8908 17.1125 23.1285C17.035 23.1556 16.9636 23.1977 16.9024 23.2524C16.8412 23.307 16.7914 23.3732 16.7557 23.4472C16.7201 23.5211 16.6994 23.6014 16.6947 23.6833C16.6901 23.7652 16.7017 23.8473 16.7288 23.9248C16.7558 24.0023 16.7979 24.0736 16.8526 24.1349C16.9073 24.1961 16.9735 24.2459 17.0474 24.2816C17.1213 24.3172 17.2016 24.3379 17.2835 24.3426C17.3655 24.3472 17.4475 24.3356 17.525 24.3085C18.2206 24.0375 18.851 23.6226 19.375 23.091V27.4373C19.375 29.1873 18.5531 29.9998 16.7875 29.9998ZM29.0869 25.5623C28.8738 25.953 28.5823 26.2954 28.2306 26.5681C27.8789 26.8407 27.4746 27.0377 27.0431 27.1467C27.0463 27.0667 27.0563 26.9898 27.0563 26.9079C27.0924 25.8572 26.7566 24.8273 26.1081 23.9998C26.0568 23.9342 25.9929 23.8796 25.9201 23.8391C25.8474 23.7985 25.7673 23.773 25.6845 23.7638C25.6018 23.7547 25.518 23.7622 25.4382 23.7859C25.3583 23.8096 25.2841 23.849 25.2197 23.9018C25.1553 23.9546 25.1021 24.0198 25.0632 24.0934C25.0244 24.1671 25.0006 24.2477 24.9934 24.3307C24.9861 24.4136 24.9956 24.4972 25.0211 24.5765C25.0466 24.6557 25.0876 24.7291 25.1419 24.7923C25.6048 25.3969 25.84 26.1453 25.8063 26.906C25.8084 27.2081 25.7735 27.5093 25.7025 27.8029C25.6184 28.4062 25.321 28.9594 24.8642 29.3623C24.4075 29.7653 23.8216 29.9914 23.2125 29.9998C21.4469 29.9998 20.625 29.1873 20.625 27.4373V23.091C21.149 23.6226 21.7795 24.0375 22.475 24.3085C22.5525 24.3356 22.6346 24.3472 22.7165 24.3426C22.7984 24.3379 22.8787 24.3172 22.9526 24.2816C23.0266 24.2459 23.0928 24.1961 23.1474 24.1349C23.2021 24.0736 23.2442 24.0023 23.2713 23.9248C23.2984 23.8473 23.3099 23.7652 23.3053 23.6833C23.3007 23.6014 23.2799 23.5211 23.2443 23.4472C23.2087 23.3732 23.1588 23.307 23.0976 23.2524C23.0364 23.1977 22.965 23.1556 22.8875 23.1285C22.865 23.121 20.625 22.3123 20.625 19.9998C20.6486 19.3125 20.8764 18.6478 21.2794 18.0905C21.6823 17.5333 22.2422 17.1087 22.8875 16.871C23.044 16.8163 23.1723 16.7017 23.2443 16.5524C23.3163 16.4031 23.326 16.2313 23.2713 16.0748C23.2166 15.9183 23.1019 15.79 22.9526 15.718C22.8033 15.646 22.6315 15.6363 22.475 15.691C21.7795 15.962 21.149 16.3769 20.625 16.9085V12.5623C20.625 10.8123 21.4469 9.99978 23.2125 9.99978C23.8243 10.0092 24.4125 10.2378 24.8701 10.644C25.3277 11.0503 25.6244 11.6071 25.7063 12.2135C25.7751 12.5017 25.8087 12.7972 25.8063 13.0935C25.8406 13.8551 25.6054 14.6045 25.1419 15.2098C25.0477 15.3389 25.0066 15.4991 25.0269 15.6576C25.0473 15.8161 25.1275 15.9608 25.2513 16.0619C25.375 16.1631 25.5327 16.213 25.6921 16.2014C25.8514 16.1899 26.0003 16.1177 26.1081 15.9998C26.7562 15.1727 27.0919 14.1436 27.0563 13.0935C27.0563 13.0117 27.0463 12.9354 27.0431 12.8548C27.4744 12.9635 27.8785 13.1602 28.2301 13.4325C28.5817 13.7048 28.8732 14.0469 29.0863 14.4373C29.4001 15.026 29.5356 15.6934 29.4763 16.3579C29.1883 16.2623 28.8891 16.2045 28.5863 16.186C28.4205 16.1808 28.2595 16.2416 28.1386 16.3552C28.0177 16.4687 27.9468 16.6256 27.9416 16.7913C27.9364 16.9571 27.9972 17.1181 28.1107 17.2391C28.2242 17.36 28.3811 17.4308 28.5469 17.436C28.9185 17.4679 29.278 17.5839 29.5981 17.7754C29.9528 18.0202 30.2352 18.3558 30.4159 18.7471C30.5965 19.1384 30.6687 19.571 30.625 19.9998C30.6686 20.4282 30.5965 20.8605 30.4161 21.2515C30.2357 21.6426 29.9536 21.978 29.5994 22.2229C29.279 22.4143 28.9193 22.5306 28.5475 22.5629C28.3818 22.5656 28.2239 22.6341 28.1086 22.7533C27.9933 22.8724 27.9301 23.0325 27.9328 23.1982C27.9356 23.364 28.004 23.5219 28.1232 23.6371C28.2423 23.7524 28.4024 23.8156 28.5681 23.8129H28.5863C28.8891 23.7944 29.1883 23.7367 29.4763 23.641C29.5357 24.3057 29.4004 24.9732 29.0869 25.5623Z" fill="#0E59F2"></path><path d="M27.15 17.5C27.15 17.3351 27.0848 17.1769 26.9687 17.0598C26.8526 16.9427 26.6949 16.8763 26.53 16.875H26.525C26.3604 16.875 26.2025 16.9399 26.0855 17.0556C25.9684 17.1713 25.9018 17.3286 25.9 17.4931C25.8819 17.9211 25.7336 18.3335 25.4749 18.675C25.2163 19.0165 24.8596 19.2709 24.4525 19.4044C24.3274 19.4455 24.2186 19.525 24.1414 19.6316C24.0642 19.7382 24.0226 19.8665 24.0226 19.9981C24.0226 20.1298 24.0642 20.258 24.1414 20.3646C24.2186 20.4713 24.3274 20.5508 24.4525 20.5919C24.8595 20.7252 25.2162 20.9795 25.4749 21.321C25.7335 21.6624 25.8818 22.0746 25.9 22.5025C25.9005 22.6683 25.9668 22.827 26.0844 22.9439C26.2019 23.0608 26.3611 23.1261 26.5269 23.1256C26.6926 23.1251 26.8514 23.0588 26.9683 22.9412C27.0851 22.8237 27.1505 22.6645 27.15 22.4988C27.1347 22.0205 27.0188 21.5508 26.8099 21.1202C26.601 20.6897 26.3037 20.308 25.9375 20C26.3039 19.6919 26.6012 19.31 26.8101 18.8792C27.019 18.4484 27.1348 17.9785 27.15 17.5Z" fill="#0E59F2"></path></g><defs><clipPath id="clip0_2119_595"><rect width="40" height="40" fill="white"></rect></clipPath></defs></svg>