<svg xmlns="http://www.w3.org/2000/svg" width="40" height="40" viewBox="0 0 40 40" fill="none"><g clip-path="url(#clip0_2119_575)"><path d="M34.0375 0.755068C31.875 0.390693 29.7981 0.800693 28.2306 1.87444H7.5C6.46625 1.87444 5.625 2.71569 5.625 3.74944V21.6157L0.625 16.6157V39.3744H23.3838L19.6338 35.6244H30.2438L31.0675 37.7657C31.2938 38.3538 31.8694 38.7494 32.5 38.7494C33.1306 38.7494 33.7063 38.3538 33.9331 37.7657L36.875 30.1157V13.7494C36.875 12.4226 37.3806 11.6982 37.9656 10.8588C38.6019 9.94757 39.3225 8.91507 39.3725 7.07819C39.4569 3.95007 37.2131 1.29069 34.0375 0.755068ZM7.5 3.12444H26.8856C26.0681 4.16694 25.625 5.46069 25.625 6.87444C25.625 8.84007 26.3731 9.91194 27.0344 10.8588C27.2719 11.1994 27.4944 11.5232 27.6775 11.8744H6.875V3.74944C6.875 3.40444 7.155 3.12444 7.5 3.12444ZM5.625 34.3744V29.0082L10.9913 34.3744H5.625ZM10.625 35.6244V38.1244H9.375V36.8744H8.125V38.1244H6.875V35.6244H10.625ZM14.375 38.1244V36.8744H13.125V38.1244H11.875V35.6244H14.0088L4.375 25.9907V35.6244H5.625V38.1244H4.375V36.8744H3.125V38.1244H1.875V19.6332L20.3663 38.1244H14.375ZM18.3838 34.3744L14.6338 30.6244H16.875V29.3744H13.3838L12.1338 28.1244H16.875V26.8744H10.8838L9.63375 25.6244H11.875V24.3744H8.38375L6.875 22.8657V13.1244H28.0781C28.1056 13.3194 28.125 13.5232 28.125 13.7494V30.1157L29.7631 34.3744H18.3838ZM29.375 14.3744H35.625V15.6244H29.375V14.3744ZM31.875 6.87444H33.125V13.1244H31.875V6.87444ZM29.66 30.6244H35.34L34.3788 33.1244H30.6219L29.66 30.6244ZM33.125 29.3744V16.8744H35.625V29.3744H33.125ZM29.375 16.8744H31.875V29.3744H29.375V16.8744ZM32.7669 37.3163C32.68 37.5382 32.3194 37.5382 32.2338 37.3163L31.1025 34.3744H33.8981L32.7669 37.3163ZM36.9406 10.1432C36.4025 10.9138 35.8025 11.7757 35.6581 13.1244H34.375V8.00944C34.5713 8.07944 34.78 8.12444 35 8.12444C36.0338 8.12444 36.875 7.28319 36.875 6.24944C36.875 5.21569 36.0338 4.37444 35 4.37444C34.1863 4.37444 33.4988 4.89882 33.24 5.62444H31.7594C31.5013 4.89882 30.8138 4.37444 30 4.37444C28.9663 4.37444 28.125 5.21569 28.125 6.24944C28.125 7.28319 28.9663 8.12444 30 8.12444C30.22 8.12444 30.4288 8.07944 30.625 8.00944V13.1244H29.3419C29.1969 11.7757 28.5975 10.9144 28.0594 10.1432C27.45 9.27069 26.875 8.44694 26.875 6.87444C26.875 5.38944 27.445 4.12257 28.5244 3.21069C29.8513 2.08819 31.7844 1.64132 33.83 1.98819C36.385 2.41882 38.1906 4.54569 38.1225 7.04444C38.0838 8.50632 37.5281 9.30194 36.9406 10.1432ZM34.375 6.24944C34.375 5.90444 34.655 5.62444 35 5.62444C35.345 5.62444 35.625 5.90444 35.625 6.24944C35.625 6.59444 35.345 6.87444 35 6.87444C34.655 6.87444 34.375 6.59444 34.375 6.24944ZM30.625 6.24944C30.625 6.59444 30.345 6.87444 30 6.87444C29.655 6.87444 29.375 6.59444 29.375 6.24944C29.375 5.90444 29.655 5.62444 30 5.62444C30.345 5.62444 30.625 5.90444 30.625 6.24944Z" fill="#0E59F2"></path><path d="M10 9.375C11.0338 9.375 11.875 8.53375 11.875 7.5C11.875 6.46625 11.0338 5.625 10 5.625C8.96625 5.625 8.125 6.46625 8.125 7.5C8.125 8.53375 8.96625 9.375 10 9.375ZM10 6.875C10.345 6.875 10.625 7.155 10.625 7.5C10.625 7.845 10.345 8.125 10 8.125C9.655 8.125 9.375 7.845 9.375 7.5C9.375 7.155 9.655 6.875 10 6.875Z" fill="#0E59F2"></path><path d="M15 9.375C16.0338 9.375 16.875 8.53375 16.875 7.5C16.875 6.46625 16.0338 5.625 15 5.625C13.9662 5.625 13.125 6.46625 13.125 7.5C13.125 8.53375 13.9662 9.375 15 9.375ZM15 6.875C15.345 6.875 15.625 7.155 15.625 7.5C15.625 7.845 15.345 8.125 15 8.125C14.655 8.125 14.375 7.845 14.375 7.5C14.375 7.155 14.655 6.875 15 6.875Z" fill="#0E59F2"></path><path d="M20 9.375C21.0338 9.375 21.875 8.53375 21.875 7.5C21.875 6.46625 21.0338 5.625 20 5.625C18.9662 5.625 18.125 6.46625 18.125 7.5C18.125 8.53375 18.9662 9.375 20 9.375ZM20 6.875C20.345 6.875 20.625 7.155 20.625 7.5C20.625 7.845 20.345 8.125 20 8.125C19.655 8.125 19.375 7.845 19.375 7.5C19.375 7.155 19.655 6.875 20 6.875Z" fill="#0E59F2"></path><path d="M8.125 23.125H16.875V14.375H8.125V23.125ZM9.375 15.625H15.625V21.875H9.375V15.625Z" fill="#0E59F2"></path><path d="M18.125 14.375H21.875V15.625H18.125V14.375Z" fill="#0E59F2"></path><path d="M23.125 14.375H26.875V15.625H23.125V14.375Z" fill="#0E59F2"></path><path d="M18.125 16.875H26.875V18.125H18.125V16.875Z" fill="#0E59F2"></path><path d="M18.125 19.375H26.875V20.625H18.125V19.375Z" fill="#0E59F2"></path><path d="M18.125 33.125H26.875V24.375H18.125V33.125ZM19.375 25.625H25.625V31.875H19.375V25.625Z" fill="#0E59F2"></path><path d="M13.125 24.375H16.875V25.625H13.125V24.375Z" fill="#0E59F2"></path></g><defs><clipPath id="clip0_2119_575"><rect width="40" height="40" fill="white"></rect></clipPath></defs></svg>