<svg xmlns="http://www.w3.org/2000/svg" width="43" height="45" viewBox="0 0 43 45" fill="none"><path d="M10.3228 4.34662C8.78606 4.34662 7.53582 5.59686 7.53582 7.13363C7.53582 8.67039 8.78606 9.92072 10.3228 9.92072C11.8596 9.92072 13.1099 8.67039 13.1099 7.13363C13.1099 5.59686 11.8596 4.34662 10.3228 4.34662ZM10.3228 8.60237C9.513 8.60237 8.85417 7.94354 8.85417 7.13363C8.85417 6.32381 9.513 5.66498 10.3228 5.66498C11.1327 5.66498 11.7916 6.32381 11.7916 7.13363C11.7915 7.94354 11.1326 8.60237 10.3228 8.60237Z" fill="#0E59F2"></path><path d="M13.1097 19.6172V17.0691C13.1097 16.705 12.8147 16.4099 12.4506 16.4099H5.73625C5.37212 16.4099 5.07707 16.705 5.07707 17.0691V19.6172C5.07707 19.9813 5.37212 20.2763 5.73625 20.2763H12.4506C12.8147 20.2763 13.1097 19.9813 13.1097 19.6172ZM11.7914 18.958H6.39543V17.7283H11.7915L11.7914 18.958Z" fill="#0E59F2"></path><path d="M40.897 5.47188H36.7128C35.9841 5.47188 35.3486 5.87741 35.0193 6.47445H17.4565V6.05653C17.4565 5.74478 17.2381 5.47575 16.9331 5.4115L15.3268 5.0733C15.3239 5.06627 15.321 5.05924 15.318 5.05221L16.2147 3.67725C16.3851 3.41613 16.3491 3.07142 16.1287 2.85108L14.6055 1.32776C14.385 1.10733 14.0404 1.0713 13.7792 1.24172L12.4042 2.13855C12.3971 2.13565 12.3902 2.13275 12.3832 2.12976L12.0449 0.523388C11.9808 0.21832 11.7117 0 11.3999 0H9.24564C8.93389 0 8.66486 0.21832 8.60061 0.523388L8.26241 2.12976C8.25537 2.13266 8.24843 2.13556 8.2414 2.13855L6.86644 1.24172C6.60532 1.07138 6.26061 1.10751 6.04018 1.32776L4.51687 2.85099C4.29644 3.07151 4.26058 3.41621 4.43082 3.67725L5.32766 5.05229C5.32476 5.05933 5.32186 5.06627 5.31887 5.0733L3.71249 5.4115C3.40743 5.47566 3.18911 5.74478 3.18911 6.05653V6.47445H3.17162C1.42286 6.47445 0 7.89722 0 9.64606V30.1512C0 31.8999 1.42277 33.3228 3.17162 33.3228H5.66893C5.98763 35.6196 8.00489 37.3635 10.3226 37.3635C11.006 37.3635 11.6551 37.2156 12.2415 36.9523L10.7506 42.786C10.1586 45.102 13.8486 45.8888 14.4174 43.6649L17.0606 33.323H19.2066V43.2254C19.2066 44.1905 20.0162 45 20.9812 45C21.9464 45 22.7558 44.1905 22.7558 43.2254V33.3228H24.902L27.5451 43.6646C28.1133 45.8881 31.8041 45.1027 31.2119 42.7858L28.7935 33.3228H38.7911C40.5398 33.3228 41.9627 31.9 41.9627 30.1512V15.9082C41.9627 15.544 41.6676 15.249 41.3035 15.249C40.9394 15.249 40.6443 15.544 40.6443 15.9082V30.1512C40.6443 31.1731 39.813 32.0044 38.7911 32.0044L14.9758 32.0045C14.6542 29.7241 12.6906 27.9638 10.3226 27.9638C8.00489 27.9638 5.98771 29.7073 5.66902 32.0044H3.17162C2.14971 32.0044 1.31836 31.1731 1.31836 30.1512V11.0056H4.32702C4.33977 11.1565 4.4034 11.3029 4.51687 11.4164L6.04018 12.9396C6.26053 13.1598 6.60506 13.196 6.86635 13.0256L8.24131 12.1288C8.24834 12.1317 8.25537 12.1346 8.26241 12.1376L8.60061 13.744C8.66477 14.049 8.93389 14.2673 9.24564 14.2673H11.3999C11.7117 14.2673 11.9807 14.049 12.0449 13.744L12.3832 12.1376C12.3902 12.1347 12.3972 12.1318 12.4042 12.1288L13.7792 13.0256C14.0405 13.196 14.3852 13.1599 14.6055 12.9396L16.1287 11.4164C16.2422 11.3029 16.3057 11.1565 16.3184 11.0056H34.5441L28.3991 17.1506L25.2428 13.9951C24.7514 13.5017 23.9352 13.502 23.4432 13.9942L21.3941 16.0432C21.1366 16.3006 21.1366 16.718 21.394 16.9753C21.6515 17.2327 22.0689 17.2329 22.3262 16.9754L24.3425 14.9593L27.4998 18.1158C27.9914 18.607 28.8072 18.6085 29.2985 18.1157L38.2693 9.14482C38.4578 8.95621 38.5141 8.67277 38.4121 8.42641C38.3101 8.18005 38.0697 8.01948 37.8031 8.01948H36.7126C35.9199 8.01948 35.9207 6.79024 36.7126 6.79024H40.8968C41.2262 6.79024 41.4941 7.05778 41.4941 7.38658V11.5708C41.4941 11.9064 41.2146 12.1859 40.879 12.1859C40.5399 12.1859 40.2639 11.9099 40.2639 11.5708V10.4813C40.2639 10.2147 40.1034 9.97425 39.857 9.8723C39.6106 9.77008 39.3272 9.82659 39.1387 10.0151L28.3995 20.7534L25.2419 17.5965C24.7467 17.1015 23.9403 17.1013 23.4431 17.5966L18.0332 23.0074C17.4794 23.5621 16.6026 22.6996 17.1641 22.1376L20.1294 19.1725C20.3868 18.915 20.3868 18.4977 20.1294 18.2403C19.8719 17.983 19.4546 17.9828 19.1972 18.2403L16.232 21.2053C15.4639 21.9736 15.4954 23.2551 16.2886 23.9915C17.0394 24.6888 18.2418 24.6647 18.966 23.9393L24.3426 18.5618L27.4999 21.7183C27.9893 22.2094 28.8084 22.2111 29.2985 21.7191L38.9983 12.0201C39.2013 12.8703 39.9676 13.5045 40.8791 13.5045C41.9322 13.5045 42.8126 12.6243 42.8126 11.571V7.38658C42.8127 6.33075 41.9533 5.47188 40.897 5.47188ZM13.1401 43.3382C12.9939 43.9101 11.8618 43.7621 12.028 43.1124L13.9291 35.6735C14.4779 35.0171 14.8507 34.2094 14.9757 33.3229H15.6999L13.1401 43.3382ZM21.4375 43.2253C21.4375 43.8123 20.525 43.8133 20.525 43.2253V33.3228H21.4375V43.2253ZM29.9347 43.1123C30.1005 43.7605 28.9687 43.9095 28.8226 43.3382L26.2629 33.3228H27.4328L29.9347 43.1123ZM9.55941 29.3683C9.80866 29.3112 10.0655 29.2822 10.3226 29.2822C12.1872 29.2822 13.704 30.7985 13.7046 32.6625L13.7045 32.6636L13.7046 32.6648C13.704 34.5287 12.1871 36.045 10.3226 36.045C8.47255 36.045 6.94124 34.5121 6.94124 32.6635C6.94124 31.0786 8.01816 29.7235 9.55941 29.3683ZM1.31836 9.64606C1.31836 8.62416 2.14971 7.79281 3.17162 7.79281H3.18911V8.21081C3.18911 8.52256 3.40743 8.79159 3.71249 8.85584L5.31887 9.19404C5.32177 9.20108 5.32467 9.20802 5.32766 9.21505L5.01969 9.6872H1.31836V9.64606ZM14.0514 11.6291L12.82 10.8258C12.3728 10.5344 11.2763 10.9944 11.1678 11.5105L10.865 12.9488H9.78054L9.47776 11.5105C9.36789 10.9881 8.26724 10.5378 7.82559 10.8258L6.59416 11.6291L5.82723 10.8622L6.63046 9.63077C6.92181 9.18367 6.46197 8.08715 5.94588 7.97861L4.50746 7.67583V6.59143L5.94588 6.28865C6.46839 6.17879 6.9183 5.07813 6.63046 4.63648L5.82723 3.40505L6.59416 2.63812L7.82559 3.44135C8.27269 3.7328 9.36921 3.27286 9.47776 2.75677L9.78063 1.31836H10.8651L11.1679 2.75677C11.2778 3.27919 12.3784 3.72928 12.8201 3.44135L14.0515 2.63812L14.8183 3.40505L14.0151 4.63648C13.7236 5.0835 14.1838 6.18019 14.6998 6.28865L16.1381 6.59143V7.67591L14.6998 7.97869C14.1774 8.08847 13.7271 9.1893 14.0151 9.63086L14.8183 10.8623L14.0514 11.6291ZM36.264 9.28571L35.8626 9.68711H15.6259L15.318 9.21505C15.3209 9.20802 15.3238 9.20099 15.3268 9.19396L16.9331 8.85575C17.2381 8.79159 17.4565 8.52247 17.4565 8.21073V7.79272H34.8193C34.9666 8.51984 35.5419 9.11494 36.264 9.28571Z" fill="#0E59F2"></path><path d="M37.2902 27.5992H24.7972C24.433 27.5992 24.138 27.8942 24.138 28.2584C24.138 28.6225 24.433 28.9175 24.7972 28.9175H37.2902C37.6543 28.9175 37.9493 28.6225 37.9493 28.2584C37.9493 27.8942 37.6542 27.5992 37.2902 27.5992Z" fill="#0E59F2"></path><path d="M37.2902 24.7068H29.8835C29.5194 24.7068 29.2244 25.0019 29.2244 25.366C29.2244 25.7301 29.5194 26.0252 29.8835 26.0252H37.2902C37.6543 26.0252 37.9493 25.7301 37.9493 25.366C37.9493 25.0019 37.6542 24.7068 37.2902 24.7068Z" fill="#0E59F2"></path><path d="M5.73625 21.4613C5.37212 21.4613 5.07707 21.7563 5.07707 22.1204C5.07707 22.4846 5.37212 22.7796 5.73625 22.7796H10.3227C10.6869 22.7796 10.9819 22.4846 10.9819 22.1204C10.9819 21.7563 10.6869 21.4613 10.3227 21.4613H5.73625Z" fill="#0E59F2"></path><path d="M10.3229 34.211C10.6871 34.211 10.9821 33.916 10.9821 33.5518V31.774C10.9821 31.4099 10.6871 31.1148 10.3229 31.1148C9.9588 31.1148 9.66375 31.4099 9.66375 31.774V33.5518C9.66375 33.9159 9.9588 34.211 10.3229 34.211Z" fill="#0E59F2"></path></svg>