<svg xmlns="http://www.w3.org/2000/svg" width="45" height="45" viewBox="0 0 45 45" fill="none"><path d="M44.3625 32.175C43.9644 31.4871 43.3101 30.9849 42.5426 30.7783C41.7752 30.5716 40.9571 30.6774 40.2675 31.0725L32.955 35.295C32.5557 34.6967 31.9538 34.2626 31.26 34.0725L20.07 31.08C19.2088 30.8476 18.3025 30.8399 17.4375 31.0575L13.5 32.04V30.75C13.5 30.5511 13.421 30.3603 13.2803 30.2197C13.1397 30.079 12.9489 30 12.75 30H6.75C6.55109 30 6.36032 30.079 6.21967 30.2197C6.07902 30.3603 6 30.5511 6 30.75V31.5H0.75C0.551088 31.5 0.360322 31.579 0.21967 31.7197C0.0790176 31.8603 0 32.0511 0 32.25V42.75C0 42.9489 0.0790176 43.1397 0.21967 43.2803C0.360322 43.421 0.551088 43.5 0.75 43.5H6V44.25C6 44.4489 6.07902 44.6397 6.21967 44.7803C6.36032 44.921 6.55109 45 6.75 45H12.75C12.9489 45 13.1397 44.921 13.2803 44.7803C13.421 44.6397 13.5 44.4489 13.5 44.25V43.215L14.4675 43.695C15.1969 44.0581 16.0002 44.248 16.815 44.25H28.0425C28.9645 44.252 29.8705 44.0087 30.6675 43.545L43.2675 36.27C43.9538 35.8704 44.4542 35.2155 44.6594 34.4483C44.8645 33.6811 44.7578 32.8638 44.3625 32.175ZM6 42H1.5V33H6V42ZM12 43.5H7.5V31.5H12V43.5ZM42.5175 34.9725L29.9175 42.2475C29.3477 42.5773 28.7009 42.7506 28.0425 42.75H16.815C16.2316 42.7512 15.656 42.615 15.135 42.3525L13.5 41.535V33.585L17.7975 32.5125C18.4159 32.3561 19.0641 32.3613 19.68 32.5275L30.87 35.5275C31.1579 35.6022 31.4169 35.7613 31.6138 35.9842C31.8107 36.2071 31.9366 36.4837 31.9753 36.7787C32.014 37.0736 31.9637 37.3733 31.8309 37.6395C31.6981 37.9056 31.4889 38.126 31.23 38.2725C31.061 38.3722 30.8736 38.4369 30.679 38.4627C30.4844 38.4884 30.2867 38.4748 30.0975 38.4225L21.15 36.0225C20.9571 35.9708 20.7515 35.9978 20.5785 36.0977C20.4055 36.1976 20.2792 36.3621 20.2275 36.555C20.1758 36.7479 20.2028 36.9535 20.3027 37.1265C20.4026 37.2995 20.5671 37.4258 20.76 37.4775L29.7075 39.87C29.9619 39.9385 30.2241 39.9738 30.4875 39.975C31.0122 39.9758 31.5276 39.8359 31.98 39.57C32.3228 39.3742 32.6233 39.1123 32.8641 38.7994C33.1048 38.4866 33.281 38.129 33.3825 37.7475C33.4657 37.4169 33.4936 37.0747 33.465 36.735L41.0175 32.3775C41.3621 32.1862 41.7676 32.1364 42.1483 32.2386C42.5289 32.3407 42.855 32.5869 43.0575 32.925C43.2567 33.2683 43.3117 33.6765 43.2105 34.0603C43.1093 34.4441 42.8601 34.7721 42.5175 34.9725Z" fill="#0E59F2"></path><path d="M9.75 42.75C9.94891 42.75 10.1397 42.671 10.2803 42.5303C10.421 42.3897 10.5 42.1989 10.5 42V41.25C10.5 41.0511 10.421 40.8603 10.2803 40.7197C10.1397 40.579 9.94891 40.5 9.75 40.5C9.55109 40.5 9.36032 40.579 9.21967 40.7197C9.07902 40.8603 9 41.0511 9 41.25V42C9 42.1989 9.07902 42.3897 9.21967 42.5303C9.36032 42.671 9.55109 42.75 9.75 42.75Z" fill="#0E59F2"></path><path d="M33 11.25H30.1875L30.0525 10.935L32.0475 8.9475C32.188 8.80589 32.2669 8.61449 32.2669 8.415C32.2669 8.21551 32.188 8.02411 32.0475 7.8825L28.8675 4.7025C28.7259 4.56199 28.5345 4.48314 28.335 4.48314C28.1355 4.48314 27.9441 4.56199 27.8025 4.7025L25.815 6.6975L25.5 6.5625V3.75C25.5 3.55109 25.421 3.36032 25.2803 3.21967C25.1397 3.07902 24.9489 3 24.75 3H20.25C20.0511 3 19.8603 3.07902 19.7197 3.21967C19.579 3.36032 19.5 3.55109 19.5 3.75V6.5625L19.185 6.6975L17.1975 4.7025C17.0559 4.56199 16.8645 4.48314 16.665 4.48314C16.4655 4.48314 16.2741 4.56199 16.1325 4.7025L12.9525 7.8825C12.812 8.02411 12.7331 8.21551 12.7331 8.415C12.7331 8.61449 12.812 8.80589 12.9525 8.9475L14.9475 10.935L14.8125 11.25H12C11.8011 11.25 11.6103 11.329 11.4697 11.4697C11.329 11.6103 11.25 11.8011 11.25 12V16.5C11.25 16.6989 11.329 16.8897 11.4697 17.0303C11.6103 17.171 11.8011 17.25 12 17.25H14.8125L14.9475 17.565L12.9525 19.5525C12.8144 19.6955 12.7365 19.8862 12.735 20.085C12.7379 20.2835 12.8156 20.4737 12.9525 20.6175L16.1325 23.7975C16.2755 23.9356 16.4662 24.0135 16.665 24.015C16.8635 24.0121 17.0537 23.9344 17.1975 23.7975L19.185 21.8025L19.5 21.9375V24.75C19.5 24.9489 19.579 25.1397 19.7197 25.2803C19.8603 25.421 20.0511 25.5 20.25 25.5H24.75C24.9489 25.5 25.1397 25.421 25.2803 25.2803C25.421 25.1397 25.5 24.9489 25.5 24.75V21.9375L25.815 21.8025L27.8025 23.7975C27.9475 23.9313 28.1377 24.0056 28.335 24.0056C28.5323 24.0056 28.7225 23.9313 28.8675 23.7975L32.0475 20.6175C32.1844 20.4737 32.2621 20.2835 32.265 20.085C32.2635 19.8862 32.1856 19.6955 32.0475 19.5525L30.0525 17.565L30.1875 17.25H33C33.1989 17.25 33.3897 17.171 33.5303 17.0303C33.671 16.8897 33.75 16.6989 33.75 16.5V12C33.75 11.8011 33.671 11.6103 33.5303 11.4697C33.3897 11.329 33.1989 11.25 33 11.25ZM32.25 15.75H29.655C29.4968 15.7501 29.3428 15.8002 29.2148 15.8932C29.0868 15.9861 28.9915 16.1171 28.9425 16.2675C28.8265 16.6443 28.6733 17.0086 28.485 17.355C28.4085 17.498 28.3797 17.6616 28.4026 17.8221C28.4255 17.9826 28.4991 18.1317 28.6125 18.2475L30.4575 20.085L28.335 22.2075L26.4975 20.3625C26.3817 20.2491 26.2326 20.1755 26.0721 20.1526C25.9116 20.1297 25.748 20.1585 25.605 20.235C25.2586 20.4233 24.8943 20.5765 24.5175 20.6925C24.3671 20.7415 24.2361 20.8368 24.1432 20.9648C24.0502 21.0928 24.0001 21.2468 24 21.405V24H21V21.405C20.9999 21.2468 20.9498 21.0928 20.8568 20.9648C20.7639 20.8368 20.6329 20.7415 20.4825 20.6925C20.1057 20.5765 19.7414 20.4233 19.395 20.235C19.252 20.1585 19.0884 20.1297 18.9279 20.1526C18.7674 20.1755 18.6183 20.2491 18.5025 20.3625L16.665 22.2075L14.5425 20.085L16.3875 18.2475C16.5009 18.1317 16.5745 17.9826 16.5974 17.8221C16.6203 17.6616 16.5915 17.498 16.515 17.355C16.3267 17.0086 16.1735 16.6443 16.0575 16.2675C16.0085 16.1171 15.9132 15.9861 15.7852 15.8932C15.6572 15.8002 15.5032 15.7501 15.345 15.75H12.75V12.75H15.345C15.5032 12.7499 15.6572 12.6998 15.7852 12.6068C15.9132 12.5139 16.0085 12.3829 16.0575 12.2325C16.1735 11.8557 16.3267 11.4914 16.515 11.145C16.5915 11.002 16.6203 10.8384 16.5974 10.6779C16.5745 10.5174 16.5009 10.3683 16.3875 10.2525L14.5425 8.415L16.665 6.2925L18.5025 8.1375C18.6183 8.25094 18.7674 8.32447 18.9279 8.3474C19.0884 8.37033 19.252 8.34147 19.395 8.265C19.7414 8.07673 20.1057 7.92347 20.4825 7.8075C20.6329 7.75847 20.7639 7.66316 20.8568 7.5352C20.9498 7.40723 20.9999 7.25316 21 7.095V4.5H24V7.095C24.0001 7.25316 24.0502 7.40723 24.1432 7.5352C24.2361 7.66316 24.3671 7.75847 24.5175 7.8075C24.8943 7.92347 25.2586 8.07673 25.605 8.265C25.748 8.34147 25.9116 8.37033 26.0721 8.3474C26.2326 8.32447 26.3817 8.25094 26.4975 8.1375L28.335 6.2925L30.4575 8.415L28.6125 10.2525C28.4991 10.3683 28.4255 10.5174 28.4026 10.6779C28.3797 10.8384 28.4085 11.002 28.485 11.145C28.6733 11.4914 28.8265 11.8557 28.9425 12.2325C28.9915 12.3829 29.0868 12.5139 29.2148 12.6068C29.3428 12.6998 29.4968 12.7499 29.655 12.75H32.25V15.75Z" fill="#0E59F2"></path><path d="M27 14.25C27 13.36 26.7361 12.49 26.2416 11.7499C25.7471 11.0099 25.0443 10.4331 24.2221 10.0925C23.3998 9.75195 22.495 9.66283 21.6221 9.83647C20.7492 10.0101 19.9474 10.4387 19.318 11.068C18.6887 11.6974 18.2601 12.4992 18.0865 13.3721C17.9128 14.245 18.0019 15.1498 18.3425 15.9721C18.6831 16.7943 19.2599 17.4971 19.9999 17.9916C20.74 18.4861 21.61 18.75 22.5 18.75C23.6931 18.7488 24.837 18.2743 25.6807 17.4307C26.5243 16.587 26.9988 15.4431 27 14.25ZM19.5 14.25C19.5 13.6567 19.6759 13.0766 20.0056 12.5833C20.3352 12.0899 20.8038 11.7054 21.3519 11.4784C21.9001 11.2513 22.5033 11.1919 23.0853 11.3076C23.6672 11.4234 24.2018 11.7091 24.6213 12.1287C25.0409 12.5482 25.3266 13.0828 25.4424 13.6647C25.5581 14.2467 25.4987 14.8499 25.2716 15.398C25.0446 15.9462 24.6601 16.4148 24.1667 16.7444C23.6734 17.0741 23.0933 17.25 22.5 17.25C21.7043 17.25 20.9413 16.9339 20.3787 16.3713C19.8161 15.8087 19.5 15.0456 19.5 14.25Z" fill="#0E59F2"></path><path d="M39.75 15.75H38.25C38.25 11.5728 36.5906 7.56677 33.6369 4.61307C30.6832 1.65937 26.6772 0 22.5 0C18.3228 0 14.3168 1.65937 11.3631 4.61307C8.40937 7.56677 6.75 11.5728 6.75 15.75H5.25C4.05653 15.75 2.91193 16.2241 2.06802 17.068C1.22411 17.9119 0.75 19.0565 0.75 20.25C0.75 21.4435 1.22411 22.5881 2.06802 23.432C2.91193 24.2759 4.05653 24.75 5.25 24.75H9C9.19891 24.75 9.38968 24.671 9.53033 24.5303C9.67098 24.3897 9.75 24.1989 9.75 24V16.5C9.75 16.3011 9.67098 16.1103 9.53033 15.9697C9.38968 15.829 9.19891 15.75 9 15.75H8.25C8.25 11.9707 9.75134 8.34612 12.4237 5.67373C15.0961 3.00133 18.7207 1.5 22.5 1.5C26.2793 1.5 29.9039 3.00133 32.5763 5.67373C35.2487 8.34612 36.75 11.9707 36.75 15.75H36C35.8011 15.75 35.6103 15.829 35.4697 15.9697C35.329 16.1103 35.25 16.3011 35.25 16.5V24C35.25 24.1989 35.329 24.3897 35.4697 24.5303C35.6103 24.671 35.8011 24.75 36 24.75H36.75V27C36.75 27.1989 36.671 27.3897 36.5303 27.5303C36.3897 27.671 36.1989 27.75 36 27.75H30.615C30.4593 27.3129 30.1728 26.9345 29.7943 26.6661C29.4159 26.3977 28.9639 26.2524 28.5 26.25H27C26.4033 26.25 25.831 26.4871 25.409 26.909C24.9871 27.331 24.75 27.9033 24.75 28.5C24.75 29.0967 24.9871 29.669 25.409 30.091C25.831 30.5129 26.4033 30.75 27 30.75H28.5C28.9639 30.7476 29.4159 30.6023 29.7943 30.3339C30.1728 30.0655 30.4593 29.6871 30.615 29.25H36C36.5962 29.2482 37.1674 29.0106 37.589 28.589C38.0106 28.1674 38.2482 27.5962 38.25 27V24.75H39.75C40.9435 24.75 42.0881 24.2759 42.932 23.432C43.7759 22.5881 44.25 21.4435 44.25 20.25C44.25 19.0565 43.7759 17.9119 42.932 17.068C42.0881 16.2241 40.9435 15.75 39.75 15.75ZM5.25 23.25C4.45435 23.25 3.69129 22.9339 3.12868 22.3713C2.56607 21.8087 2.25 21.0457 2.25 20.25C2.25 19.4543 2.56607 18.6913 3.12868 18.1287C3.69129 17.5661 4.45435 17.25 5.25 17.25V23.25ZM8.25 23.25H6.75V17.25H8.25V23.25ZM28.5 29.25H27C26.8011 29.25 26.6103 29.171 26.4697 29.0303C26.329 28.8897 26.25 28.6989 26.25 28.5C26.25 28.3011 26.329 28.1103 26.4697 27.9697C26.6103 27.829 26.8011 27.75 27 27.75H28.5C28.6989 27.75 28.8897 27.829 29.0303 27.9697C29.171 28.1103 29.25 28.3011 29.25 28.5C29.25 28.6989 29.171 28.8897 29.0303 29.0303C28.8897 29.171 28.6989 29.25 28.5 29.25ZM38.25 23.25H36.75V17.25H38.25V23.25ZM39.75 23.25V17.25C40.5457 17.25 41.3087 17.5661 41.8713 18.1287C42.4339 18.6913 42.75 19.4543 42.75 20.25C42.75 21.0457 42.4339 21.8087 41.8713 22.3713C41.3087 22.9339 40.5457 23.25 39.75 23.25Z" fill="#0E59F2"></path></svg>