<svg xmlns="http://www.w3.org/2000/svg" width="1920" height="670" viewBox="0 0 1920 670" fill="none"><mask id="mask0_2119_9" style="mask-type:alpha" maskUnits="userSpaceOnUse" x="0" y="0" width="1920" height="670"><rect width="1920" height="670" fill="#D9D9D9"></rect></mask><g mask="url(#mask0_2119_9)"><rect y="342.4" width="1920" height="327.599" fill="#0F182B"></rect><path d="M1896.13 6.37448C2220.74 -67.7314 2378.63 46.4494 2417 112.803V343.398H-337V112.803C-155.702 148.279 -60.7368 112.803 183.871 35.938C428.48 -40.9271 716.254 47.7634 1052.95 112.803C1389.65 177.843 1490.37 99.0068 1896.13 6.37448Z" fill="#0F182B"></path><g opacity="0.29"><path d="M326.272 65.7381C324.765 66.0095 323.594 67.3366 323.594 68.9049C323.594 70.6844 325.054 72.1321 326.835 72.1321C328.63 72.1321 330.091 70.6844 330.091 68.9049C330.091 67.3366 328.935 66.0095 327.413 65.7381V46.028L371.662 2.17414V-70.1816H370.521V1.70665L326.272 45.5605V65.7381ZM328.95 68.9049C328.95 70.0661 328.006 71.0011 326.835 71.0011C325.678 71.0011 324.735 70.0661 324.735 68.9049C324.735 67.9549 325.389 67.1405 326.272 66.9143C326.454 66.854 326.637 66.8238 326.835 66.8238C327.032 66.8238 327.23 66.854 327.413 66.9143C328.311 67.1556 328.95 67.9549 328.95 68.9049Z" fill="white" fill-opacity="0.34"></path><path d="M334.306 26.0306C334.717 26.302 335.219 26.4528 335.751 26.4528C337.227 26.4528 338.429 25.2615 338.429 23.7987C338.429 22.3359 337.227 21.1445 335.751 21.1445C334.275 21.1445 333.073 22.3359 333.073 23.7987C333.073 24.3265 333.225 24.8091 333.499 25.2313L317.279 41.292V84.4068C315.772 84.6783 314.601 86.0054 314.601 87.5737C314.601 89.3532 316.061 90.8009 317.842 90.8009C319.637 90.8009 321.098 89.3532 321.098 87.5737C321.098 86.0054 319.942 84.6783 318.42 84.4068V41.7594L334.306 26.0306ZM319.957 87.5737C319.957 88.7349 319.013 89.6699 317.842 89.6699C316.685 89.6699 315.742 88.7349 315.742 87.5737C315.742 86.6237 316.396 85.8093 317.279 85.5831C317.461 85.5228 317.644 85.4926 317.842 85.4926C318.039 85.4926 318.237 85.5228 318.42 85.5831C319.318 85.8244 319.957 86.6237 319.957 87.5737Z" fill="white" fill-opacity="0.34"></path><path d="M349.34 9.86461H332.008L304.482 37.13V63.0834C302.96 63.3548 301.819 64.6819 301.819 66.2653C301.819 68.0297 303.264 69.4775 305.06 69.4775C306.84 69.4775 308.301 68.0297 308.301 66.2653C308.301 64.6819 307.129 63.3548 305.623 63.0834V37.5975L332.48 10.9956H349.811L361.285 -0.390072V-47.2147C362.791 -47.4862 363.963 -48.7982 363.963 -50.3816C363.963 -52.1611 362.502 -53.5938 360.721 -53.5938C358.926 -53.5938 357.465 -52.1611 357.465 -50.3816C357.465 -48.7982 358.622 -47.4862 360.143 -47.2147V-0.857563L349.34 9.86461ZM307.16 66.2653C307.16 67.4114 306.216 68.3464 305.06 68.3464C303.904 68.3464 302.96 67.4114 302.96 66.2653C302.96 65.3002 303.599 64.5009 304.482 64.2596C304.664 64.1993 304.862 64.1692 305.06 64.1692C305.258 64.1692 305.44 64.1993 305.623 64.2596C306.505 64.4858 307.16 65.3002 307.16 66.2653ZM358.606 -50.3816C358.606 -51.5277 359.55 -52.4627 360.721 -52.4627C361.878 -52.4627 362.821 -51.5277 362.821 -50.3816C362.821 -49.4316 362.167 -48.6172 361.285 -48.391C361.102 -48.3307 360.919 -48.3005 360.721 -48.3005C360.524 -48.3005 360.326 -48.3307 360.143 -48.391C359.246 -48.6323 358.606 -49.4316 358.606 -50.3816Z" fill="white" fill-opacity="0.34"></path><path d="M95.8802 74.8769V-13.5848L178.14 -95.1246L177.334 -95.9238L94.739 -14.0523V74.4094L-42.5433 210.45H-139V211.581H-42.0716L95.8802 74.8769Z" fill="white" fill-opacity="0.34"></path><path d="M110.731 40.7486L163.061 -11.113C163.471 -10.8566 163.974 -10.6907 164.491 -10.6907C165.967 -10.6907 167.169 -11.882 167.169 -13.3448C167.169 -14.8076 165.967 -15.999 164.491 -15.999C163.015 -15.999 161.813 -14.8076 161.813 -13.3448C161.813 -12.817 161.98 -12.3194 162.239 -11.9122L111.873 38.0039V-6.33247L185.733 -79.5328L184.927 -80.332L110.731 -6.79996V40.7486Z" fill="white" fill-opacity="0.34"></path><path d="M215.801 21.2211C215.405 20.9798 214.949 20.8441 214.446 20.8441C212.97 20.8441 211.768 22.0355 211.768 23.4983C211.768 24.9611 212.97 26.1524 214.446 26.1524C215.922 26.1524 217.125 24.9611 217.125 23.4983C217.125 22.9403 216.942 22.4125 216.653 21.9902L257.189 -18.1689H319.653L343.223 -41.5285V-74.3887H342.082V-42.011L319.181 -19.315H256.718L215.801 21.2211Z" fill="white" fill-opacity="0.34"></path><path d="M4.70354 124.415C3.50145 124.672 2.60368 125.727 2.60368 127.009C2.60368 128.472 3.80578 129.663 5.28177 129.663C6.75776 129.663 7.95985 128.472 7.95985 127.009C7.95985 125.742 7.06208 124.687 5.85999 124.415V22.2154L19.9047 36.1346V66.039L11.6422 74.2428V98.7635C10.1206 99.0199 8.94892 100.332 8.94892 101.93C8.94892 103.695 10.4097 105.143 12.19 105.143C13.9855 105.143 15.4463 103.695 15.4463 101.93C15.4463 100.347 14.2899 99.05 12.7835 98.7635V74.6952L21.046 66.4914V35.652L5.85999 20.6017V-6.18105L-28.316 -40.0215L-29.1225 -39.2222L4.70354 -5.69847V124.415ZM14.2747 101.915C14.2747 103.061 13.3312 103.996 12.1596 103.996C11.0031 103.996 10.0597 103.061 10.0597 101.915C10.0597 100.95 10.714 100.151 11.6118 99.9096C11.7944 99.8644 11.977 99.8342 12.1596 99.8342C12.3726 99.8342 12.5704 99.8644 12.753 99.9247C13.6356 100.181 14.2747 100.98 14.2747 101.915Z" fill="white" fill-opacity="0.34"></path><path d="M39.4883 172.356H121.033C121.307 173.533 122.372 174.392 123.635 174.392C125.111 174.392 126.313 173.201 126.313 171.738C126.313 170.275 125.111 169.084 123.635 169.084C122.342 169.084 121.261 170.004 121.018 171.21H39.0166L-35.1025 244.667H-139V245.798H-34.6308L39.4883 172.356Z" fill="white" fill-opacity="0.34"></path><path d="M182.72 104.885C182.979 106.077 184.044 106.967 185.337 106.967C186.813 106.967 188.015 105.775 188.015 104.312C188.015 102.85 186.813 101.658 185.337 101.658C184.059 101.658 182.994 102.548 182.72 103.739H168.173L129.782 141.802H67.4255L99.0604 110.45C99.4865 110.737 99.9886 110.903 100.536 110.903C102.012 110.903 103.214 109.711 103.214 108.248C103.214 106.786 102.012 105.594 100.536 105.594C99.0604 105.594 97.8583 106.786 97.8583 108.248C97.8583 108.761 98.0105 109.229 98.2691 109.636L64.6561 142.948H130.224L168.615 104.9H182.72V104.885Z" fill="white" fill-opacity="0.34"></path><path d="M124.883 132.664L145.242 112.486H145.257C145.76 112.833 146.368 113.029 147.023 113.029C148.818 113.029 150.264 111.582 150.264 109.817C150.264 108.038 148.818 106.59 147.023 106.59C145.242 106.59 143.781 108.038 143.781 109.817C143.781 110.526 144.025 111.189 144.421 111.717L124.411 131.533H92.9435L112.664 112.004C113.197 112.396 113.866 112.637 114.581 112.637C116.377 112.637 117.838 111.205 117.838 109.425C117.838 107.661 116.377 106.213 114.581 106.213C112.801 106.213 111.34 107.661 111.34 109.425C111.34 110.073 111.538 110.692 111.873 111.189L90.1893 132.664H124.883ZM144.923 109.817C144.923 108.656 145.866 107.721 147.023 107.721C148.179 107.721 149.122 108.656 149.122 109.817C149.122 110.963 148.179 111.898 147.023 111.898C146.688 111.898 146.368 111.823 146.079 111.672C145.729 111.506 145.44 111.235 145.242 110.903C145.044 110.586 144.923 110.209 144.923 109.817ZM112.481 109.425C112.481 108.279 113.425 107.344 114.581 107.344C115.753 107.344 116.696 108.279 116.696 109.425C116.696 110.571 115.753 111.506 114.581 111.506C114.186 111.506 113.805 111.385 113.486 111.189C113.151 110.993 112.877 110.707 112.71 110.36C112.557 110.073 112.481 109.757 112.481 109.425Z" fill="white" fill-opacity="0.34"></path><path d="M21.0308 1.81374V-15.6795L2.22336 -34.3038C2.49726 -34.711 2.64942 -35.2087 2.64942 -35.7365C2.64942 -37.1993 1.44733 -38.3906 -0.0286636 -38.3906C-1.50465 -38.3906 -2.70675 -37.1993 -2.70675 -35.7365C-2.70675 -34.2737 -1.50465 -33.0823 -0.0286636 -33.0823C0.50391 -33.0823 0.990835 -33.2331 1.41689 -33.5046L19.8744 -15.212V1.34625L13.6965 7.46889V-11.6531L-4.13709 -29.3273C-3.87841 -29.7345 -3.71103 -30.2321 -3.71103 -30.7449C-3.71103 -32.2077 -4.91313 -33.399 -6.38912 -33.399C-7.86511 -33.399 -9.0672 -32.2077 -9.0672 -30.7449C-9.0672 -29.2821 -7.86511 -28.0907 -6.38912 -28.0907C-5.85654 -28.0907 -5.3544 -28.2566 -4.94356 -28.513L-4.92834 -28.4979L12.5705 -11.1403V13.124C11.0489 13.3955 9.89242 14.7226 9.89242 16.306C9.89242 18.0704 11.3532 19.5181 13.1487 19.5181C14.929 19.5181 16.3898 18.0704 16.3898 16.306C16.3898 14.7226 15.2182 13.3955 13.7117 13.124V9.09758L21.0308 1.81374ZM15.2334 16.2759C15.2334 17.422 14.29 18.357 13.1335 18.357C11.9619 18.357 11.0184 17.422 11.0184 16.2759C11.0184 15.3107 11.6575 14.5114 12.5553 14.2702C12.7379 14.2098 12.9357 14.1797 13.1335 14.1797C13.3313 14.1797 13.5139 14.2098 13.6965 14.2702C14.5791 14.4964 15.2334 15.3107 15.2334 16.2759Z" fill="white" fill-opacity="0.34"></path><path d="M426 47.7019V-70.1816H424.859V47.2344L385.448 86.2927V136.948C384.246 137.204 383.348 138.26 383.348 139.542C383.348 141.004 384.55 142.196 386.026 142.196C387.502 142.196 388.705 141.004 388.705 139.542C388.705 138.275 387.807 137.219 386.605 136.948V86.7602L426 47.7019Z" fill="white" fill-opacity="0.34"></path><path d="M213.046 133.66C211.251 133.66 209.805 135.108 209.805 136.872C209.805 137.566 210.018 138.199 210.384 138.712L139.171 209.288H52.6809L-22.0925 283.394H-139V284.525H-21.6208L53.1526 210.419H139.643L211.205 139.511C211.723 139.888 212.362 140.099 213.046 140.099C214.842 140.099 216.288 138.652 216.288 136.872C216.288 135.108 214.842 133.66 213.046 133.66ZM214.218 138.607C213.883 138.833 213.473 138.968 213.046 138.968C212.681 138.968 212.331 138.878 212.027 138.697L212.042 138.682C211.631 138.471 211.312 138.124 211.129 137.687C211.114 137.672 211.114 137.656 211.114 137.641C210.992 137.4 210.947 137.144 210.947 136.872C210.947 136.45 211.084 136.043 211.312 135.711C211.464 135.485 211.647 135.304 211.875 135.153C212.21 134.927 212.62 134.791 213.046 134.791C213.473 134.791 213.883 134.927 214.218 135.153C214.34 135.229 214.446 135.319 214.538 135.409C214.903 135.786 215.146 136.299 215.146 136.872C215.146 137.596 214.781 138.23 214.218 138.607Z" fill="white" fill-opacity="0.34"></path><path d="M267.278 39.6192L280.425 26.5897C280.851 26.8612 281.338 27.0271 281.885 27.0271C283.361 27.0271 284.564 25.8357 284.564 24.3729C284.564 22.9101 283.361 21.7188 281.885 21.7188C280.409 21.7188 279.207 22.9101 279.207 24.3729C279.207 24.8856 279.36 25.3682 279.618 25.7905L266.121 39.1668V92.0387L251.681 106.35H209.06L169.315 145.74C168.904 145.469 168.402 145.318 167.869 145.318C166.393 145.318 165.191 146.509 165.191 147.972C165.191 149.435 166.393 150.626 167.869 150.626C169.345 150.626 170.547 149.435 170.547 147.972C170.547 147.444 170.395 146.962 170.121 146.539L209.532 107.481H252.153L267.263 92.5062V39.6192H267.278Z" fill="white" fill-opacity="0.34"></path><path d="M41.3751 249.659H123.041C123.133 251.032 124.289 252.133 125.704 252.133C127.18 252.133 128.382 250.941 128.382 249.478C128.382 248.016 127.18 246.824 125.704 246.824C124.563 246.824 123.605 247.533 123.209 248.528H40.9034L-16.5232 305.427H-139V306.558H-16.0515L41.3751 249.659Z" fill="white" fill-opacity="0.34"></path><path d="M69.2516 227.791C68.9777 226.283 67.6386 225.137 66.0561 225.137C64.2606 225.137 62.7998 226.584 62.7998 228.364C62.7998 230.128 64.2606 231.576 66.0561 231.576C67.6386 231.576 68.9777 230.415 69.2516 228.922H169.847L128.839 269.564H104.067C103.793 268.056 102.454 266.909 100.871 266.909C99.0757 266.909 97.6149 268.357 97.6149 270.137C97.6149 271.901 99.0757 273.349 100.871 273.349C102.454 273.349 103.793 272.188 104.067 270.695H129.311L172.601 227.791H69.2516ZM68.0647 228.922C67.8364 229.797 67.0147 230.445 66.0561 230.445C64.8844 230.445 63.941 229.51 63.941 228.364C63.941 227.218 64.8844 226.268 66.0561 226.268C67.0147 226.268 67.8212 226.916 68.0647 227.791C68.1255 227.972 68.156 228.168 68.156 228.364C68.156 228.56 68.1255 228.741 68.0647 228.922ZM102.88 270.695C102.788 271.057 102.591 271.388 102.317 271.63C102.256 271.705 102.18 271.765 102.089 271.826C101.845 271.992 101.571 272.112 101.267 272.173C101.145 272.203 101.008 272.218 100.871 272.218H100.856C99.6996 272.218 98.7561 271.283 98.7561 270.122C98.7561 269.549 98.9844 269.036 99.38 268.659C99.4713 268.553 99.5778 268.478 99.6843 268.402C100.019 268.176 100.415 268.04 100.856 268.04H100.871C101.008 268.04 101.145 268.056 101.282 268.086C101.419 268.101 101.556 268.146 101.678 268.206C101.815 268.252 101.936 268.327 102.043 268.402C102.149 268.463 102.241 268.538 102.332 268.629C102.515 268.81 102.667 269.021 102.758 269.247C102.804 269.352 102.849 269.458 102.88 269.564C102.941 269.745 102.971 269.926 102.971 270.122C102.971 270.318 102.941 270.514 102.88 270.695Z" fill="white" fill-opacity="0.34"></path><path d="M223.683 155.904H246.675C246.949 157.397 248.272 158.558 249.87 158.558C251.666 158.558 253.111 157.111 253.111 155.346C253.111 153.567 251.666 152.119 249.87 152.119C248.272 152.119 246.949 153.265 246.675 154.773H223.211L203.643 174.167V189.549L182.568 210.45H164.81C164.552 209.259 163.487 208.354 162.193 208.354C160.717 208.354 159.515 209.545 159.515 211.008C159.515 212.471 160.717 213.662 162.193 213.662C163.471 213.662 164.537 212.773 164.795 211.581H183.04L219.97 174.966H234.912C235.186 176.474 236.525 177.62 238.123 177.62C239.903 177.62 241.364 176.172 241.364 174.393C241.364 172.628 239.903 171.181 238.123 171.181C236.525 171.181 235.186 172.342 234.912 173.835H219.498L204.784 188.418V174.634L223.683 155.904ZM249.87 153.25C251.027 153.25 251.97 154.185 251.97 155.346C251.97 156.492 251.027 157.427 249.87 157.427C248.911 157.427 248.09 156.779 247.861 155.904C247.801 155.723 247.77 155.542 247.77 155.346C247.77 155.15 247.801 154.954 247.861 154.773C248.105 153.884 248.911 153.25 249.87 153.25ZM238.123 172.312C239.279 172.312 240.223 173.247 240.223 174.393C240.223 175.554 239.279 176.489 238.123 176.489C237.164 176.489 236.343 175.856 236.099 174.966C236.038 174.785 236.008 174.589 236.008 174.393C236.008 174.197 236.038 174.016 236.099 173.835C236.343 172.96 237.164 172.312 238.123 172.312Z" fill="white" fill-opacity="0.34"></path><path d="M104.036 180.244C104.31 181.752 105.634 182.898 107.232 182.898C109.012 182.898 110.473 181.451 110.473 179.671C110.473 177.907 109.012 176.459 107.232 176.459C105.634 176.459 104.31 177.62 104.036 179.113H42.8055L28.3956 193.394C27.9848 193.123 27.4826 192.972 26.9501 192.972C25.4741 192.972 24.272 194.163 24.272 195.626C24.272 197.089 25.4741 198.28 26.9501 198.28C28.426 198.28 29.6281 197.089 29.6281 195.626C29.6281 195.098 29.4608 194.601 29.2021 194.194L43.2925 180.244H104.036ZM107.232 177.59C108.388 177.59 109.332 178.525 109.332 179.671C109.332 180.832 108.388 181.767 107.232 181.767C106.273 181.767 105.467 181.134 105.223 180.244C105.162 180.063 105.132 179.867 105.132 179.671C105.132 179.475 105.162 179.294 105.223 179.113C105.451 178.238 106.273 177.59 107.232 177.59Z" fill="white" fill-opacity="0.34"></path><path d="M67.03 461.041V409.254L104.432 372.187C104.843 372.458 105.345 372.609 105.877 372.609C107.353 372.609 108.555 371.418 108.555 369.955C108.555 368.492 107.353 367.301 105.877 367.301C104.401 367.301 103.199 368.492 103.199 369.955C103.199 370.483 103.351 370.965 103.625 371.388L65.8887 408.787V460.573L12.89 513.098H-59.8291V514.229H13.3617L67.03 461.041Z" fill="white" fill-opacity="0.34"></path><path d="M50.6723 401.369L85.32 367.031C85.8374 367.408 86.4765 367.619 87.1612 367.619C88.9568 367.619 90.4023 366.171 90.4023 364.407C90.4023 362.627 88.9568 361.18 87.1612 361.18C85.3657 361.18 83.9201 362.627 83.9201 364.407C83.9201 365.086 84.1332 365.719 84.4984 366.247L49.5311 400.901V452.145L24.1349 477.314C23.6175 476.937 22.9785 476.726 22.2785 476.726C20.483 476.726 19.0374 478.174 19.0374 479.953C19.0374 481.717 20.483 483.165 22.2785 483.165C24.074 483.165 25.5196 481.717 25.5196 479.953C25.5196 479.259 25.3066 478.626 24.9414 478.113L50.6723 452.612V401.369ZM85.0613 364.407C85.0613 363.246 86.0048 362.311 87.1612 362.311C88.3177 362.311 89.2611 363.246 89.2611 364.407C89.2611 365.553 88.3177 366.488 87.1612 366.488C86.796 366.488 86.446 366.398 86.1417 366.217C85.807 366.036 85.5178 365.749 85.3352 365.417C85.1526 365.116 85.0613 364.769 85.0613 364.407ZM24.3784 479.953C24.3784 481.099 23.435 482.034 22.2785 482.034C21.1221 482.034 20.1786 481.099 20.1786 479.953C20.1786 478.792 21.1221 477.857 22.2785 477.857C22.6437 477.857 22.9937 477.947 23.298 478.143C23.648 478.309 23.9219 478.596 24.1045 478.943C24.2871 479.244 24.3784 479.591 24.3784 479.953Z" fill="white" fill-opacity="0.34"></path><path d="M183.892 237.804C184.303 238.075 184.805 238.226 185.337 238.226C186.813 238.226 188.015 237.035 188.015 235.572C188.015 234.109 186.813 232.918 185.337 232.918C183.861 232.918 182.659 234.109 182.659 235.572C182.659 236.1 182.827 236.582 183.085 237.005L146.079 273.68V314.111C144.557 314.382 143.401 315.694 143.401 317.278C143.401 319.057 144.862 320.49 146.657 320.49C148.438 320.49 149.898 319.057 149.898 317.278C149.898 315.694 148.727 314.382 147.22 314.111V274.148L183.892 237.804ZM148.757 317.278C148.757 318.424 147.814 319.359 146.657 319.359C145.486 319.359 144.542 318.424 144.542 317.278C144.542 316.328 145.181 315.528 146.079 315.287C146.262 315.227 146.459 315.197 146.657 315.197C146.855 315.197 147.038 315.227 147.22 315.287C148.103 315.513 148.757 316.328 148.757 317.278Z" fill="white" fill-opacity="0.34"></path><path d="M-39.7587 472.381V473.512H6.90995L35.1516 445.507C35.6689 445.869 36.308 446.081 36.9928 446.081C38.7883 446.081 40.2338 444.633 40.2338 442.868C40.2338 441.089 38.7883 439.656 36.9928 439.656C35.1972 439.656 33.7517 441.089 33.7517 442.868C33.7517 443.562 33.9647 444.195 34.3451 444.708L6.43824 472.381H-39.7587ZM34.8929 442.868C34.8929 441.722 35.8363 440.787 36.9928 440.787C38.1492 440.787 39.0926 441.722 39.0926 442.868C39.0926 444.014 38.1492 444.949 36.9928 444.949C36.6276 444.949 36.2776 444.859 35.9885 444.678C35.6385 444.512 35.3494 444.226 35.182 443.879C34.9842 443.577 34.8929 443.23 34.8929 442.868Z" fill="white" fill-opacity="0.34"></path><path d="M-1.59604 335.798H-31.618V336.929H-1.12433L38.8643 297.298H59.0565C59.3152 298.489 60.3803 299.379 61.6737 299.379C63.1497 299.379 64.3518 298.187 64.3518 296.724C64.3518 295.262 63.1497 294.07 61.6737 294.07C60.3955 294.07 59.3304 294.96 59.0565 296.151H38.3926L-1.59604 335.798Z" fill="white" fill-opacity="0.34"></path><path d="M74.9272 287.146H47.5073C47.2334 285.638 45.9095 284.492 44.3118 284.492C42.5315 284.492 41.0707 285.94 41.0707 287.719C41.0707 289.484 42.5315 290.932 44.3118 290.932C45.9095 290.932 47.2334 289.77 47.5073 288.277H74.4555L89.3371 303.041L66.0561 326.114C65.5539 325.797 64.9757 325.616 64.3518 325.616C62.5563 325.616 61.0955 327.064 61.0955 328.829C61.0955 330.608 62.5563 332.056 64.3518 332.056C66.1321 332.056 67.5929 330.608 67.5929 328.829C67.5929 328.09 67.3342 327.411 66.9082 326.868L90.9501 303.041L74.9272 287.146ZM44.3118 289.8C43.1554 289.8 42.212 288.866 42.212 287.719C42.212 286.558 43.1554 285.623 44.3118 285.623C45.2705 285.623 46.0769 286.257 46.3204 287.146C46.3813 287.327 46.4117 287.523 46.4117 287.719C46.4117 287.915 46.3813 288.096 46.3204 288.277C46.0921 289.152 45.2705 289.8 44.3118 289.8ZM66.4517 328.829C66.4517 329.99 65.5083 330.925 64.3518 330.925C63.1802 330.925 62.2367 329.99 62.2367 328.829C62.2367 327.682 63.1802 326.747 64.3518 326.747C64.6561 326.747 64.9453 326.808 65.2192 326.944C65.5843 327.094 65.8887 327.351 66.0865 327.682C66.3299 328.014 66.4517 328.406 66.4517 328.829Z" fill="white" fill-opacity="0.34"></path><path d="M51.6613 353.352V327.112L70.7123 308.216C71.1231 308.488 71.6252 308.638 72.1578 308.638C73.6338 308.638 74.8359 307.447 74.8359 305.984C74.8359 304.521 73.6338 303.33 72.1578 303.33C70.6818 303.33 69.4797 304.521 69.4797 305.984C69.4797 306.512 69.6319 306.995 69.9058 307.402L50.5201 326.629V352.869L24.7283 378.431V395.441C23.2219 395.713 22.0502 397.025 22.0502 398.608C22.0502 400.388 23.511 401.82 25.2913 401.82C27.0869 401.82 28.5324 400.388 28.5324 398.608C28.5324 397.025 27.3912 395.713 25.8695 395.441V378.898L51.6613 353.352ZM27.3912 398.623C27.3912 399.769 26.4478 400.704 25.2913 400.704C24.1349 400.704 23.1915 399.769 23.1915 398.623C23.1915 397.673 23.8458 396.859 24.7283 396.633C24.9109 396.572 25.0935 396.542 25.2913 396.542C25.4891 396.542 25.687 396.572 25.8695 396.633C26.7521 396.874 27.3912 397.673 27.3912 398.623Z" fill="white" fill-opacity="0.34"></path><path d="M44.7532 349.384V322.481L55.4808 311.849C56.0133 312.226 56.6524 312.437 57.3372 312.437C59.1175 312.437 60.5783 310.99 60.5783 309.21C60.5783 307.446 59.1175 305.998 57.3372 305.998C55.5416 305.998 54.0809 307.446 54.0809 309.21C54.0809 309.904 54.2939 310.537 54.6743 311.05L43.612 322.013V348.917L16.2529 376.031V410.309C14.7313 410.581 13.5748 411.893 13.5748 413.476C13.5748 415.256 15.0204 416.688 16.8159 416.688C18.6115 416.688 20.057 415.256 20.057 413.476C20.057 411.893 18.9158 410.581 17.3941 410.309V376.499L44.7532 349.384ZM55.2221 309.21C55.2221 308.064 56.1655 307.129 57.3372 307.129C58.4936 307.129 59.437 308.064 59.437 309.21C59.437 310.371 58.4936 311.306 57.3372 311.306C56.9568 311.306 56.6068 311.216 56.3025 311.035C55.9677 310.854 55.6786 310.567 55.496 310.236C55.3134 309.934 55.2221 309.587 55.2221 309.21ZM18.9158 413.476C18.9158 414.622 17.9724 415.557 16.8159 415.557C15.6595 415.557 14.7161 414.622 14.7161 413.476C14.7161 412.526 15.3704 411.712 16.2529 411.486C16.4355 411.425 16.6181 411.395 16.8159 411.395C17.0137 411.395 17.2115 411.425 17.3941 411.486C18.2767 411.727 18.9158 412.526 18.9158 413.476Z" fill="white" fill-opacity="0.34"></path><path d="M155.65 345.932C153.87 345.932 152.409 347.364 152.409 349.144C152.409 349.837 152.622 350.471 153.003 350.984L88.5155 414.879V467.253L19.1288 536.02H-59.8138V537.151H19.6005L89.6568 467.721V415.347L153.809 351.783C154.342 352.145 154.981 352.356 155.65 352.356C157.446 352.356 158.891 350.923 158.891 349.144C158.891 347.364 157.446 345.932 155.65 345.932ZM155.65 351.225C155.285 351.225 154.935 351.134 154.646 350.953C154.296 350.788 154.007 350.501 153.84 350.154C153.642 349.853 153.55 349.506 153.55 349.144C153.55 347.998 154.494 347.063 155.65 347.063C156.807 347.063 157.75 347.998 157.75 349.144C157.75 350.29 156.807 351.225 155.65 351.225Z" fill="white" fill-opacity="0.34"></path><path d="M116.057 87.002C116.057 88.7664 117.503 90.2141 119.298 90.2141C121.094 90.2141 122.539 88.7664 122.539 87.002C122.539 86.3083 122.326 85.6749 121.961 85.1471L197.587 10.2125C197.982 10.4388 198.439 10.5896 198.926 10.5896C200.402 10.5896 201.604 9.3982 201.604 7.93541C201.604 6.47261 200.402 5.28125 198.926 5.28125C197.45 5.28125 196.248 6.47261 196.248 7.93541C196.248 8.49338 196.43 9.02119 196.734 9.45852L121.139 84.3629C120.622 83.9859 119.983 83.7748 119.298 83.7748C117.503 83.7748 116.057 85.2225 116.057 87.002ZM121.124 85.9765C121.307 86.2781 121.398 86.625 121.398 87.002C121.398 88.1481 120.455 89.0831 119.298 89.0831C118.142 89.0831 117.198 88.1481 117.198 87.002C117.198 85.8408 118.142 84.9058 119.298 84.9058C119.663 84.9058 120.013 84.9963 120.318 85.1773C120.652 85.3582 120.942 85.6297 121.124 85.9765Z" fill="white" fill-opacity="0.34"></path><path d="M197.267 37.7636C199.047 37.7636 200.508 36.3158 200.508 34.5514C200.508 32.7719 199.047 31.3242 197.267 31.3242C195.471 31.3242 194.011 32.7719 194.011 34.5514C194.011 35.23 194.224 35.8634 194.604 36.3762L137.132 93.3349H186.098C186.372 94.8429 187.696 95.989 189.294 95.989C191.074 95.989 192.535 94.5564 192.535 92.7769C192.535 90.9974 191.074 89.5648 189.294 89.5648C187.696 89.5648 186.372 90.6958 186.098 92.2038H139.886L195.411 37.1754C195.943 37.5524 196.582 37.7636 197.267 37.7636ZM189.294 90.6958C190.45 90.6958 191.393 91.6308 191.393 92.7769C191.393 93.923 190.45 94.858 189.294 94.858C188.335 94.858 187.513 94.2095 187.285 93.3349C187.224 93.1539 187.194 92.9729 187.194 92.7769C187.194 92.5808 187.224 92.3848 187.285 92.2038C187.529 91.3292 188.335 90.6958 189.294 90.6958ZM195.152 34.5514C195.152 33.3902 196.095 32.4552 197.267 32.4552C198.423 32.4552 199.367 33.3902 199.367 34.5514C199.367 35.6975 198.423 36.6325 197.267 36.6325C196.887 36.6325 196.537 36.542 196.232 36.3611C195.882 36.1801 195.608 35.8936 195.426 35.5618C195.243 35.2602 195.152 34.9134 195.152 34.5514Z" fill="white" fill-opacity="0.34"></path><path d="M341.534 -20.2801C341.534 -19.6014 341.747 -18.9681 342.127 -18.4553L320.063 3.41126H263.55L218.54 48.0191C218.129 47.7627 217.642 47.5969 217.109 47.5969C215.633 47.5969 214.431 48.7882 214.431 50.251C214.431 51.7138 215.633 52.9052 217.109 52.9052C218.585 52.9052 219.787 51.7138 219.787 50.251C219.787 49.7232 219.62 49.2255 219.361 48.8184L264.037 4.54229H320.55L342.934 -17.641C343.466 -17.2941 344.105 -17.0679 344.805 -17.0679C346.586 -17.0679 348.046 -18.5006 348.046 -20.2801C348.046 -22.0596 346.586 -23.4922 344.805 -23.4922C342.994 -23.4922 341.534 -22.0596 341.534 -20.2801ZM344.79 -22.3612C345.946 -22.3612 346.89 -21.4262 346.89 -20.2801C346.89 -19.134 345.946 -18.199 344.79 -18.199C344.41 -18.199 344.06 -18.2894 343.755 -18.4704C343.405 -18.6514 343.131 -18.9379 342.949 -19.2697C342.766 -19.5713 342.675 -19.9181 342.675 -20.2801C342.675 -21.4262 343.618 -22.3612 344.79 -22.3612Z" fill="white" fill-opacity="0.34"></path><path d="M369.577 170.773V123.903L359.459 113.86V78.4961L369.212 68.8295V62.7371L395.004 37.1758C395.521 37.5528 396.16 37.7639 396.845 37.7639C398.641 37.7639 400.101 36.3162 400.101 34.5518C400.101 32.7723 398.641 31.3246 396.845 31.3246C395.065 31.3246 393.604 32.7723 393.604 34.5518C393.604 35.2304 393.817 35.8638 394.198 36.3765L387.046 43.4643V30.4198L403.525 14.0877V-26.8255L395.247 -35.0292V-70.1816H394.106V9.57863L346.92 56.343V164.138C345.399 164.409 344.257 165.736 344.257 167.32C344.257 169.084 345.703 170.532 347.498 170.532C349.294 170.532 350.739 169.084 350.739 167.32C350.739 165.736 349.583 164.409 348.061 164.138V56.8105L395.247 10.0461V-33.4307L402.384 -26.358V13.6202L385.905 29.9523V44.5953L368.071 62.2545V68.347L359.459 76.8976V59.8567L372.773 46.6764C373.29 47.0534 373.929 47.2646 374.614 47.2646C376.41 47.2646 377.855 45.8168 377.855 44.0374C377.855 42.2729 376.41 40.8252 374.614 40.8252C372.818 40.8252 371.373 42.2729 371.373 44.0374C371.373 44.7311 371.586 45.3644 371.951 45.8772L358.317 59.3892V114.327L368.436 124.371V170.773C366.899 171.029 365.743 172.357 365.743 173.94C365.743 175.719 367.188 177.152 368.984 177.152C370.779 177.152 372.225 175.719 372.225 173.94C372.225 172.372 371.084 171.06 369.577 170.773ZM394.745 34.5518C394.745 33.3906 395.689 32.4556 396.845 32.4556C398.017 32.4556 398.96 33.3906 398.96 34.5518C398.96 35.6979 398.017 36.6329 396.845 36.6329C396.48 36.6329 396.13 36.5424 395.826 36.3614C395.491 36.1805 395.202 35.8939 395.019 35.5622C394.837 35.2606 394.745 34.9137 394.745 34.5518ZM349.598 167.32C349.598 168.466 348.655 169.401 347.498 169.401C346.342 169.401 345.399 168.466 345.399 167.32C345.399 166.355 346.038 165.555 346.92 165.314C347.103 165.254 347.301 165.223 347.498 165.223C347.696 165.223 347.879 165.254 348.061 165.314C348.944 165.54 349.598 166.355 349.598 167.32ZM372.514 44.0374C372.514 42.8912 373.458 41.9563 374.614 41.9563C375.77 41.9563 376.714 42.8912 376.714 44.0374C376.714 45.1985 375.77 46.1335 374.614 46.1335C374.249 46.1335 373.899 46.0431 373.595 45.8621C373.26 45.6811 372.971 45.4097 372.788 45.0628C372.605 44.7612 372.514 44.4144 372.514 44.0374ZM368.984 176.021C367.828 176.021 366.884 175.086 366.884 173.94C366.884 172.975 367.538 172.176 368.436 171.934C368.619 171.889 368.801 171.859 368.984 171.859C369.197 171.859 369.395 171.889 369.577 171.949C370.445 172.206 371.084 173.005 371.084 173.94C371.084 175.086 370.14 176.021 368.984 176.021Z" fill="white" fill-opacity="0.34"></path><path d="M361.635 188.326V132.86L357.161 128.427C357.435 128.019 357.587 127.522 357.587 126.994C357.587 125.531 356.385 124.34 354.909 124.34C353.433 124.34 352.231 125.531 352.231 126.994C352.231 128.457 353.433 129.648 354.909 129.648C355.442 129.648 355.929 129.482 356.355 129.226L360.493 133.328V188.326C358.972 188.597 357.815 189.925 357.815 191.493C357.815 193.272 359.276 194.72 361.072 194.72C362.852 194.72 364.313 193.272 364.313 191.493C364.313 189.925 363.141 188.597 361.635 188.326ZM361.072 193.589C359.9 193.589 358.957 192.654 358.957 191.493C358.957 190.543 359.596 189.744 360.493 189.502C360.676 189.442 360.874 189.412 361.072 189.412C361.269 189.412 361.452 189.442 361.635 189.502C362.517 189.728 363.172 190.543 363.172 191.493C363.172 192.654 362.228 193.589 361.072 193.589Z" fill="white" fill-opacity="0.34"></path><path d="M67.7146 54.6104C69.5101 54.6104 70.9557 53.1627 70.9557 51.3832C70.9557 49.8148 69.8145 48.4877 68.2928 48.2163V-90.5234H67.1516V48.2163C65.63 48.4877 64.4735 49.8148 64.4735 51.3832C64.4735 53.1627 65.9191 54.6104 67.7146 54.6104ZM67.1516 49.3926C67.3342 49.3322 67.5168 49.3021 67.7146 49.3021C67.9124 49.3021 68.1102 49.3322 68.2928 49.3926C69.1754 49.6339 69.8145 50.4331 69.8145 51.3832C69.8145 52.5444 68.871 53.4794 67.7146 53.4794C66.5582 53.4794 65.6147 52.5444 65.6147 51.3832C65.6147 50.4331 66.269 49.6188 67.1516 49.3926Z" fill="white" fill-opacity="0.34"></path><path d="M50.0484 -50.4413V-20.3861L60.6999 -9.82977V29.6055L53.5026 36.7235V95.8688C51.9809 96.1403 50.8245 97.4673 50.8245 99.0508C50.8245 100.815 52.2853 102.263 54.0808 102.263C55.8611 102.263 57.3219 100.815 57.3219 99.0508C57.3219 97.4673 56.1502 96.1403 54.6438 95.8688V37.1909L61.8411 30.073V-10.2973L51.1897 -20.8535V-50.4413C52.6961 -50.7127 53.8678 -52.0247 53.8678 -53.6082C53.8678 -55.3877 52.407 -56.8203 50.6267 -56.8203C48.8311 -56.8203 47.3704 -55.3877 47.3704 -53.6082C47.3704 -52.0247 48.5268 -50.7127 50.0484 -50.4413ZM56.1806 99.0508C56.1806 100.197 55.2372 101.132 54.0808 101.132C52.9091 101.132 51.9657 100.197 51.9657 99.0508C51.9657 98.1007 52.6048 97.2864 53.5026 97.0451C53.6852 96.9848 53.883 96.9546 54.0808 96.9546C54.2786 96.9546 54.4612 96.9848 54.6438 97.0451C55.5263 97.2864 56.1806 98.1007 56.1806 99.0508ZM50.6267 -55.6893C51.7831 -55.6893 52.7265 -54.7543 52.7265 -53.6082C52.7265 -52.6581 52.0722 -51.8438 51.1897 -51.6176C51.0071 -51.5572 50.8245 -51.5271 50.6267 -51.5271C50.4289 -51.5271 50.231 -51.5572 50.0484 -51.6176C49.1507 -51.8589 48.5116 -52.6581 48.5116 -53.6082C48.5116 -54.7543 49.455 -55.6893 50.6267 -55.6893Z" fill="white" fill-opacity="0.34"></path><path d="M123.635 52.9817C121.839 52.9817 120.394 54.4294 120.394 56.2089C120.394 57.9733 121.839 59.4211 123.635 59.4211C125.43 59.4211 126.876 57.9733 126.876 56.2089C126.876 55.5303 126.663 54.8969 126.298 54.3691L179.099 2.02502H179.114C179.631 2.38695 180.27 2.59808 180.97 2.59808C182.751 2.59808 184.211 1.16544 184.211 -0.614049C184.211 -2.39354 182.751 -3.82617 180.97 -3.82617C179.175 -3.82617 177.729 -2.39354 177.729 -0.614049C177.729 0.0645692 177.942 0.697945 178.307 1.21068L125.491 53.5699C124.974 53.1928 124.335 52.9817 123.635 52.9817ZM178.87 -0.614049C178.87 -1.76016 179.814 -2.69514 180.97 -2.69514C182.127 -2.69514 183.07 -1.76016 183.07 -0.614049C183.07 0.532062 182.127 1.46705 180.97 1.46705C180.605 1.46705 180.255 1.37657 179.951 1.18052C179.601 1.01464 179.312 0.728107 179.144 0.381258C178.962 0.0947299 178.87 -0.252119 178.87 -0.614049ZM125.735 56.2089C125.735 57.355 124.791 58.29 123.635 58.29C122.478 58.29 121.535 57.355 121.535 56.2089C121.535 55.0477 122.478 54.1128 123.635 54.1128C124 54.1128 124.35 54.2032 124.654 54.3993C125.004 54.5652 125.278 54.8517 125.461 55.1985C125.643 55.5002 125.735 55.847 125.735 56.2089Z" fill="white" fill-opacity="0.34"></path><path d="M338.216 182.957V142.149L327.413 131.442V111.174C328.904 110.887 330.045 109.575 330.045 108.022C330.045 106.243 328.584 104.81 326.804 104.81C325.009 104.81 323.548 106.243 323.548 108.022C323.548 109.606 324.735 110.933 326.272 111.189V131.91L337.075 142.617V155.375L318.344 136.811V111.43L305.623 98.8231V83.5919C307.129 83.3205 308.301 82.0085 308.301 80.425C308.301 78.6606 306.84 77.2129 305.06 77.2129C303.264 77.2129 301.819 78.6606 301.819 80.425C301.819 82.0085 302.96 83.3205 304.482 83.5919V99.2906L317.203 111.898V137.278L337.075 156.973V182.957C335.873 183.213 334.96 184.269 334.96 185.551C334.96 187.013 336.162 188.205 337.638 188.205C339.114 188.205 340.316 187.013 340.316 185.551C340.316 184.269 339.419 183.213 338.216 182.957ZM324.689 108.007C324.689 106.861 325.632 105.926 326.804 105.926C327.961 105.926 328.904 106.861 328.904 108.007C328.904 108.942 328.28 109.741 327.413 109.983C327.215 110.058 327.017 110.088 326.804 110.088C326.622 110.088 326.439 110.058 326.272 110.013C325.359 109.787 324.689 108.972 324.689 108.007ZM302.96 80.4099C302.96 79.2638 303.904 78.3288 305.06 78.3288C306.216 78.3288 307.16 79.2638 307.16 80.4099C307.16 81.36 306.505 82.1743 305.623 82.4006C305.44 82.4609 305.258 82.491 305.06 82.491C304.862 82.491 304.664 82.4609 304.482 82.4006C303.599 82.1593 302.96 81.36 302.96 80.4099Z" fill="white" fill-opacity="0.34"></path><path d="M298.547 216.874V180.907L268.876 151.5V126.527C270.397 126.255 271.554 124.928 271.554 123.36C271.554 121.581 270.108 120.133 268.313 120.133C266.517 120.133 265.071 121.581 265.071 123.36C265.071 124.928 266.213 126.255 267.734 126.527V151.968L297.406 181.374V216.874C296.204 217.13 295.306 218.186 295.306 219.452C295.306 220.915 296.508 222.107 297.984 222.107C299.46 222.107 300.663 220.915 300.663 219.452C300.663 218.186 299.765 217.13 298.547 216.874ZM266.213 123.345C266.213 122.184 267.156 121.249 268.313 121.249C269.469 121.249 270.412 122.184 270.412 123.345C270.412 124.295 269.758 125.109 268.876 125.336C268.693 125.396 268.51 125.426 268.313 125.426C268.115 125.426 267.917 125.396 267.734 125.336C266.852 125.094 266.213 124.295 266.213 123.345Z" fill="white" fill-opacity="0.34"></path><path d="M338.171 94.3013V52.6643L384.413 6.83495V-30.9415C385.616 -31.1978 386.513 -32.2535 386.513 -33.5353C386.513 -34.9981 385.311 -36.1895 383.835 -36.1895C382.359 -36.1895 381.157 -34.9981 381.157 -33.5353C381.157 -32.2685 382.055 -31.2129 383.257 -30.9415V6.36746L337.014 52.1968V94.3315C335.843 94.6029 334.96 95.6585 334.96 96.9102C334.96 98.373 336.162 99.5644 337.638 99.5644C339.114 99.5644 340.316 98.373 340.316 96.9102C340.332 95.6133 339.403 94.5426 338.171 94.3013Z" fill="white" fill-opacity="0.34"></path><path d="M36.2015 96.5627C37.6775 96.5627 38.8796 95.3713 38.8796 93.9085C38.8796 92.7021 38.0579 91.6917 36.9471 91.375V-90.5098H35.8059V91.2996C34.5277 91.4957 33.5387 92.5815 33.5387 93.9085C33.5234 95.3713 34.7255 96.5627 36.2015 96.5627Z" fill="white" fill-opacity="0.34"></path><path d="M106.562 192.942C107.84 192.942 108.905 192.052 109.179 190.861H128.489L160.58 159.056H85.1223C84.8484 157.548 83.5093 156.402 81.9116 156.402C80.1313 156.402 78.6705 157.85 78.6705 159.63C78.6705 161.394 80.1313 162.842 81.9116 162.842C83.5093 162.842 84.8484 161.68 85.1223 160.188H157.811L128.002 189.73H109.164C108.906 188.539 107.84 187.649 106.547 187.649C105.071 187.649 103.869 188.84 103.869 190.303C103.869 191.766 105.086 192.942 106.562 192.942ZM81.9116 161.696C80.7552 161.696 79.8118 160.761 79.8118 159.614C79.8118 158.453 80.7552 157.518 81.9116 157.518C82.8855 157.518 83.6919 158.152 83.9354 159.041C83.9963 159.222 84.0267 159.418 84.0267 159.614C84.0267 159.811 83.9963 159.991 83.9354 160.172C83.7072 161.047 82.8855 161.696 81.9116 161.696Z" fill="white" fill-opacity="0.34"></path><path d="M113.744 312.3C115.22 312.3 116.422 311.109 116.422 309.646C116.422 308.184 115.22 306.992 113.744 306.992C112.268 306.992 111.066 308.184 111.066 309.646C111.066 310.069 111.173 310.446 111.34 310.808L33.3104 388.14V415.435L3.97319 444.51H-39.7587V445.641H4.44489L34.4516 415.903V388.607L112.055 311.697C112.527 312.059 113.105 312.3 113.744 312.3Z" fill="white" fill-opacity="0.34"></path><path d="M252.229 218.547C250.95 218.547 249.885 219.437 249.627 220.628H222.024L209.151 233.386C208.634 233.024 207.995 232.813 207.295 232.813C205.499 232.813 204.053 234.246 204.053 236.025C204.053 237.805 205.499 239.237 207.295 239.237C209.09 239.237 210.536 237.805 210.536 236.025C210.536 235.331 210.323 234.698 209.957 234.185L222.496 221.759H249.611C249.87 222.95 250.935 223.855 252.229 223.855C253.705 223.855 254.907 222.664 254.907 221.201C254.907 219.738 253.705 218.547 252.229 218.547ZM209.394 236.025C209.394 237.171 208.451 238.106 207.295 238.106C206.138 238.106 205.195 237.171 205.195 236.025C205.195 234.879 206.138 233.944 207.295 233.944C207.66 233.944 208.01 234.034 208.314 234.215C208.649 234.396 208.938 234.683 209.121 235.015C209.303 235.316 209.394 235.663 209.394 236.025Z" fill="white" fill-opacity="0.34"></path><path d="M129.463 293.799C131.258 293.799 132.719 292.352 132.719 290.572C132.719 288.808 131.258 287.36 129.463 287.36C127.911 287.36 126.587 288.461 126.283 289.924H92.7304L73.299 270.666H48.7854L-6.89134 325.86H-31.618V326.991H-6.41964L49.2571 271.797H72.8273L92.2587 291.055H126.252C126.496 292.608 127.85 293.799 129.463 293.799ZM129.463 288.491C130.619 288.491 131.578 289.426 131.578 290.572C131.578 291.733 130.619 292.668 129.463 292.668C128.474 292.668 127.637 291.99 127.424 291.055C127.378 290.904 127.363 290.738 127.363 290.572C127.363 290.346 127.393 290.135 127.485 289.924C127.743 289.094 128.535 288.491 129.463 288.491Z" fill="white" fill-opacity="0.34"></path><path d="M268.312 184.707C266.715 184.707 265.391 185.853 265.117 187.361H223.211L202.015 208.368C201.497 208.006 200.858 207.795 200.158 207.795C198.363 207.795 196.902 209.228 196.902 211.007C196.902 212.787 198.363 214.219 200.158 214.219C201.938 214.219 203.399 212.787 203.399 211.007C203.399 210.329 203.186 209.695 202.806 209.183L223.683 188.492H265.117C265.391 189.985 266.715 191.146 268.312 191.146C270.108 191.146 271.553 189.699 271.553 187.934C271.553 186.155 270.108 184.707 268.312 184.707ZM202.258 211.007C202.258 212.153 201.315 213.088 200.158 213.088C198.987 213.088 198.043 212.153 198.043 211.007C198.043 209.861 198.987 208.926 200.158 208.926C200.523 208.926 200.873 209.017 201.178 209.198C201.512 209.379 201.802 209.665 201.984 209.997C202.167 210.298 202.258 210.645 202.258 211.007ZM268.312 190.015C267.354 190.015 266.532 189.367 266.304 188.492C266.243 188.311 266.213 188.13 266.213 187.934C266.213 187.738 266.243 187.542 266.304 187.361C266.547 186.487 267.354 185.838 268.312 185.838C269.469 185.838 270.412 186.788 270.412 187.934C270.412 189.08 269.469 190.015 268.312 190.015Z" fill="white" fill-opacity="0.34"></path><path d="M243.358 228.652C241.775 228.652 240.436 229.798 240.162 231.306H227.456L201.086 257.426H184.911L194.817 247.608C195.228 247.865 195.73 248.031 196.248 248.031C197.724 248.031 198.926 246.839 198.926 245.377C198.926 243.914 197.724 242.722 196.248 242.722C194.772 242.722 193.57 243.914 193.57 245.377C193.57 245.904 193.737 246.402 193.996 246.809L163.213 277.302V314.882L130.026 347.788V309.74C131.547 309.468 132.704 308.141 132.704 306.573C132.704 304.793 131.243 303.346 129.448 303.346C127.667 303.346 126.207 304.793 126.207 306.573C126.207 308.141 127.378 309.468 128.885 309.74V350.517L164.354 315.35V277.769L183.755 258.557H201.558L227.913 232.438H240.147C240.421 233.946 241.76 235.077 243.342 235.077C245.138 235.077 246.599 233.644 246.599 231.864C246.614 230.085 245.153 228.652 243.358 228.652ZM127.363 306.573C127.363 305.412 128.306 304.477 129.463 304.477C130.619 304.477 131.578 305.412 131.578 306.573C131.578 307.523 130.924 308.322 130.041 308.563C129.858 308.624 129.661 308.654 129.463 308.654C129.265 308.654 129.082 308.624 128.9 308.563C128.017 308.337 127.363 307.523 127.363 306.573ZM243.358 233.946C242.399 233.946 241.592 233.312 241.349 232.438C241.288 232.257 241.258 232.061 241.258 231.864C241.258 231.668 241.288 231.487 241.349 231.306C241.577 230.432 242.399 229.783 243.358 229.783C244.529 229.783 245.473 230.718 245.473 231.864C245.473 233.011 244.529 233.946 243.358 233.946Z" fill="white" fill-opacity="0.34"></path><path d="M314.357 196.303V175.583L285.689 147.186V47.2183C287.211 46.9469 288.368 45.6198 288.368 44.0363C288.368 42.2719 286.922 40.8242 285.126 40.8242C283.331 40.8242 281.885 42.2719 281.885 44.0363C281.885 45.6198 283.027 46.9469 284.548 47.2183V147.654L313.216 176.05V196.303C311.694 196.575 310.538 197.887 310.538 199.47C310.538 201.25 311.983 202.682 313.779 202.682C315.574 202.682 317.02 201.25 317.02 199.47C317.02 197.887 315.879 196.575 314.357 196.303ZM283.027 44.0363C283.027 42.8902 283.97 41.9552 285.126 41.9552C286.283 41.9552 287.226 42.8902 287.226 44.0363C287.226 45.0015 286.572 45.8158 285.689 46.042C285.507 46.1024 285.324 46.1325 285.126 46.1325C284.929 46.1325 284.731 46.1024 284.548 46.042C283.666 45.8008 283.027 45.0015 283.027 44.0363ZM313.779 201.551C312.622 201.551 311.679 200.616 311.679 199.47C311.679 198.52 312.333 197.706 313.216 197.48C313.399 197.419 313.581 197.389 313.779 197.389C313.977 197.389 314.175 197.419 314.357 197.48C315.24 197.721 315.879 198.52 315.879 199.47C315.879 200.616 314.935 201.551 313.779 201.551Z" fill="white" fill-opacity="0.34"></path></g><g opacity="0.29"><path d="M1833.64 -28.573V-147.722L1722.84 -257.548L1723.93 -258.625L1835.18 -148.352V-29.2027L2020.08 154.03H2150V155.554H2019.45L1833.64 -28.573Z" fill="white" fill-opacity="0.34"></path><path d="M1909.59 102.724H1799.76C1799.39 104.308 1797.96 105.466 1796.26 105.466C1794.27 105.466 1792.65 103.862 1792.65 101.891C1792.65 99.921 1794.27 98.3164 1796.26 98.3164C1798 98.3164 1799.45 99.5554 1799.78 101.18H1910.23L2010.06 200.119H2150V201.643H2009.42L1909.59 102.724Z" fill="white" fill-opacity="0.34"></path><path d="M1716.67 11.8448C1716.33 13.4494 1714.89 14.6478 1713.15 14.6478C1711.16 14.6478 1709.54 13.0432 1709.54 11.0729C1709.54 9.10269 1711.16 7.49805 1713.15 7.49805C1714.87 7.49805 1716.31 8.69646 1716.67 10.3011H1736.27L1787.98 61.5682H1871.96L1829.36 19.3399C1828.78 19.7258 1828.11 19.9492 1827.37 19.9492C1825.38 19.9492 1823.76 18.3446 1823.76 16.3743C1823.76 14.4041 1825.38 12.7994 1827.37 12.7994C1829.36 12.7994 1830.97 14.4041 1830.97 16.3743C1830.97 17.0649 1830.77 17.6946 1830.42 18.243L1875.69 63.1119H1787.38L1735.67 11.8651H1716.67V11.8448Z" fill="white" fill-opacity="0.34"></path><path d="M1794.58 49.2617L1767.15 22.0845H1767.13C1766.46 22.5517 1765.64 22.8157 1764.76 22.8157C1762.34 22.8157 1760.39 20.8658 1760.39 18.4893C1760.39 16.0925 1762.34 14.1426 1764.76 14.1426C1767.15 14.1426 1769.12 16.0925 1769.12 18.4893C1769.12 19.444 1768.79 20.3377 1768.26 21.0486L1795.21 47.7383H1837.59L1811.03 21.4345C1810.32 21.9626 1809.41 22.2876 1808.45 22.2876C1806.03 22.2876 1804.06 20.358 1804.06 17.9612C1804.06 15.5847 1806.03 13.6348 1808.45 13.6348C1810.85 13.6348 1812.82 15.5847 1812.82 17.9612C1812.82 18.8346 1812.55 19.6674 1812.1 20.3377L1841.3 49.2617H1794.58ZM1767.58 18.4893C1767.58 16.9253 1766.31 15.666 1764.76 15.666C1763.2 15.666 1761.93 16.9253 1761.93 18.4893C1761.93 20.033 1763.2 21.2923 1764.76 21.2923C1765.21 21.2923 1765.64 21.1908 1766.03 20.9876C1766.5 20.7642 1766.89 20.3986 1767.15 19.9518C1767.42 19.5252 1767.58 19.0174 1767.58 18.4893ZM1811.28 17.9612C1811.28 16.4175 1810.01 15.1582 1808.45 15.1582C1806.87 15.1582 1805.6 16.4175 1805.6 17.9612C1805.6 19.5049 1806.87 20.7642 1808.45 20.7642C1808.98 20.7642 1809.5 20.6017 1809.93 20.3377C1810.38 20.0736 1810.75 19.6877 1810.97 19.2205C1811.18 18.8346 1811.28 18.408 1811.28 17.9612Z" fill="white" fill-opacity="0.34"></path><path d="M1389 -65.1754V-223.953H1390.54V-65.8051L1443.62 -13.1974V55.0301C1445.24 55.3754 1446.45 56.7972 1446.45 58.5237C1446.45 60.494 1444.83 62.0986 1442.84 62.0986C1440.85 62.0986 1439.23 60.494 1439.23 58.5237C1439.23 56.8175 1440.44 55.3957 1442.06 55.0301V-12.5677L1389 -65.1754Z" fill="white" fill-opacity="0.34"></path><path d="M1675.83 50.6016C1678.25 50.6016 1680.19 52.5515 1680.19 54.928C1680.19 55.8623 1679.91 56.7154 1679.41 57.406L1775.33 152.465H1891.82L1992.54 252.278H2150V253.801H1991.9L1891.19 153.989H1774.7L1678.31 58.4826C1677.61 58.9904 1676.75 59.2747 1675.83 59.2747C1673.41 59.2747 1671.46 57.3248 1671.46 54.928C1671.46 52.5515 1673.41 50.6016 1675.83 50.6016ZM1674.25 57.2638C1674.7 57.5685 1675.25 57.7513 1675.83 57.7513C1676.32 57.7513 1676.79 57.6295 1677.2 57.3857L1677.18 57.3654C1677.73 57.081 1678.16 56.6139 1678.41 56.0248C1678.43 56.0045 1678.43 55.9842 1678.43 55.9639C1678.59 55.6389 1678.66 55.2936 1678.66 54.928C1678.66 54.3593 1678.47 53.8108 1678.16 53.364C1677.96 53.0593 1677.71 52.8156 1677.41 52.6124C1676.95 52.3078 1676.4 52.125 1675.83 52.125C1675.25 52.125 1674.7 52.3078 1674.25 52.6124C1674.09 52.714 1673.94 52.8359 1673.82 52.9577C1673.33 53.4655 1673 54.1561 1673 54.928C1673 55.903 1673.49 56.756 1674.25 57.2638Z" fill="white" fill-opacity="0.34"></path><path d="M1602.78 -76.0637L1585.08 -93.6131C1584.5 -93.2475 1583.85 -93.0241 1583.11 -93.0241C1581.12 -93.0241 1579.5 -94.6287 1579.5 -96.5989C1579.5 -98.5692 1581.12 -100.174 1583.11 -100.174C1585.1 -100.174 1586.72 -98.5692 1586.72 -96.5989C1586.72 -95.9083 1586.51 -95.2584 1586.16 -94.6896L1604.34 -76.673V-5.45969L1623.79 13.8162H1681.2L1734.73 66.8708C1735.28 66.5051 1735.96 66.302 1736.68 66.302C1738.67 66.302 1740.28 67.9067 1740.28 69.8769C1740.28 71.8472 1738.67 73.4518 1736.68 73.4518C1734.69 73.4518 1733.07 71.8472 1733.07 69.8769C1733.07 69.166 1733.28 68.516 1733.64 67.9473L1680.56 15.3396H1623.16L1602.8 -4.83003V-76.0637H1602.78Z" fill="white" fill-opacity="0.34"></path><path d="M1907.05 206.84H1797.06C1796.93 208.688 1795.38 210.171 1793.47 210.171C1791.48 210.171 1789.86 208.567 1789.86 206.596C1789.86 204.626 1791.48 203.021 1793.47 203.021C1795.01 203.021 1796.3 203.976 1796.83 205.317H1907.69L1985.04 281.953H2150V283.477H1984.4L1907.05 206.84Z" fill="white" fill-opacity="0.34"></path><path d="M1869.51 177.389C1869.87 175.358 1871.68 173.814 1873.81 173.814C1876.23 173.814 1878.2 175.764 1878.2 178.161C1878.2 180.538 1876.23 182.488 1873.81 182.488C1871.68 182.488 1869.87 180.924 1869.51 178.913H1734.01L1789.25 233.653H1822.61C1822.98 231.622 1824.79 230.078 1826.92 230.078C1829.34 230.078 1831.3 232.028 1831.3 234.425C1831.3 236.801 1829.34 238.751 1826.92 238.751C1824.79 238.751 1822.98 237.187 1822.61 235.177H1788.61L1730.3 177.389H1869.51ZM1871.1 178.913C1871.41 180.091 1872.52 180.964 1873.81 180.964C1875.39 180.964 1876.66 179.705 1876.66 178.161C1876.66 176.617 1875.39 175.338 1873.81 175.338C1872.52 175.338 1871.43 176.211 1871.1 177.389C1871.02 177.633 1870.98 177.897 1870.98 178.161C1870.98 178.425 1871.02 178.669 1871.1 178.913ZM1824.21 235.177C1824.33 235.664 1824.6 236.111 1824.97 236.436C1825.05 236.537 1825.15 236.619 1825.28 236.7C1825.61 236.923 1825.97 237.086 1826.38 237.167C1826.55 237.208 1826.73 237.228 1826.92 237.228H1826.94C1828.49 237.228 1829.77 235.969 1829.77 234.405C1829.77 233.633 1829.46 232.942 1828.93 232.434C1828.8 232.292 1828.66 232.191 1828.52 232.089C1828.06 231.784 1827.53 231.602 1826.94 231.602H1826.92C1826.73 231.602 1826.55 231.622 1826.36 231.663C1826.18 231.683 1825.99 231.744 1825.83 231.825C1825.65 231.886 1825.48 231.988 1825.34 232.089C1825.2 232.17 1825.07 232.272 1824.95 232.394C1824.7 232.638 1824.5 232.922 1824.38 233.227C1824.31 233.369 1824.25 233.511 1824.21 233.653C1824.13 233.897 1824.09 234.141 1824.09 234.405C1824.09 234.669 1824.13 234.933 1824.21 235.177Z" fill="white" fill-opacity="0.34"></path><path d="M1661.5 80.5631H1630.53C1630.16 82.574 1628.38 84.138 1626.23 84.138C1623.81 84.138 1621.86 82.1881 1621.86 79.8116C1621.86 77.4148 1623.81 75.4648 1626.23 75.4648C1628.38 75.4648 1630.16 77.0085 1630.53 79.0397H1662.14L1688.49 105.161V125.879L1716.88 154.031H1740.8C1741.15 152.426 1742.58 151.208 1744.32 151.208C1746.31 151.208 1747.93 152.812 1747.93 154.783C1747.93 156.753 1746.31 158.357 1744.32 158.357C1742.6 158.357 1741.17 157.159 1740.82 155.554H1716.24L1666.5 106.237H1646.38C1646.01 108.268 1644.2 109.812 1642.05 109.812C1639.65 109.812 1637.69 107.862 1637.69 105.465C1637.69 103.089 1639.65 101.139 1642.05 101.139C1644.2 101.139 1646.01 102.703 1646.38 104.714H1667.14L1686.96 124.355V105.79L1661.5 80.5631ZM1626.23 76.9882C1624.67 76.9882 1623.4 78.2476 1623.4 79.8116C1623.4 81.3553 1624.67 82.6146 1626.23 82.6146C1627.52 82.6146 1628.63 81.7412 1628.94 80.5631C1629.02 80.3194 1629.06 80.0756 1629.06 79.8116C1629.06 79.5475 1629.02 79.2835 1628.94 79.0397C1628.61 77.8413 1627.52 76.9882 1626.23 76.9882ZM1642.05 102.662C1640.49 102.662 1639.22 103.922 1639.22 105.465C1639.22 107.029 1640.49 108.289 1642.05 108.289C1643.34 108.289 1644.45 107.436 1644.78 106.237C1644.86 105.994 1644.9 105.729 1644.9 105.465C1644.9 105.201 1644.86 104.958 1644.78 104.714C1644.45 103.536 1643.34 102.662 1642.05 102.662Z" fill="white" fill-opacity="0.34"></path><path d="M1822.65 113.346C1822.28 115.377 1820.5 116.921 1818.35 116.921C1815.95 116.921 1813.98 114.971 1813.98 112.574C1813.98 110.198 1815.95 108.248 1818.35 108.248C1820.5 108.248 1822.28 109.812 1822.65 111.823H1905.13L1924.53 131.058C1925.09 130.693 1925.76 130.49 1926.48 130.49C1928.47 130.49 1930.09 132.094 1930.09 134.064C1930.09 136.035 1928.47 137.639 1926.48 137.639C1924.49 137.639 1922.87 136.035 1922.87 134.064C1922.87 133.353 1923.1 132.683 1923.45 132.135L1904.47 113.346H1822.65ZM1818.35 109.771C1816.79 109.771 1815.52 111.031 1815.52 112.574C1815.52 114.138 1816.79 115.398 1818.35 115.398C1819.64 115.398 1820.73 114.545 1821.06 113.346C1821.14 113.103 1821.18 112.839 1821.18 112.574C1821.18 112.31 1821.14 112.067 1821.06 111.823C1820.75 110.645 1819.64 109.771 1818.35 109.771Z" fill="white" fill-opacity="0.34"></path><path d="M1872.5 491.551V421.801L1822.12 371.874C1821.57 372.24 1820.89 372.443 1820.17 372.443C1818.19 372.443 1816.57 370.838 1816.57 368.868C1816.57 366.898 1818.19 365.293 1820.17 365.293C1822.16 365.293 1823.78 366.898 1823.78 368.868C1823.78 369.579 1823.58 370.229 1823.21 370.798L1874.03 421.171V490.922L1945.42 561.668H2043.36V563.191H1944.78L1872.5 491.551Z" fill="white" fill-opacity="0.34"></path><path d="M1894.53 411.18L1847.86 364.93C1847.17 365.438 1846.31 365.722 1845.38 365.722C1842.96 365.722 1841.02 363.772 1841.02 361.396C1841.02 358.999 1842.96 357.049 1845.38 357.049C1847.8 357.049 1849.75 358.999 1849.75 361.396C1849.75 362.31 1849.46 363.163 1848.97 363.874L1896.07 410.55V479.57L1930.27 513.47C1930.97 512.963 1931.83 512.678 1932.77 512.678C1935.19 512.678 1937.14 514.628 1937.14 517.025C1937.14 519.401 1935.19 521.351 1932.77 521.351C1930.36 521.351 1928.41 519.401 1928.41 517.025C1928.41 516.091 1928.69 515.237 1929.19 514.547L1894.53 480.2V411.18ZM1848.21 361.396C1848.21 359.832 1846.94 358.572 1845.38 358.572C1843.83 358.572 1842.55 359.832 1842.55 361.396C1842.55 362.939 1843.83 364.199 1845.38 364.199C1845.87 364.199 1846.35 364.077 1846.76 363.833C1847.21 363.589 1847.6 363.203 1847.84 362.756C1848.09 362.35 1848.21 361.883 1848.21 361.396ZM1929.95 517.025C1929.95 518.569 1931.22 519.828 1932.77 519.828C1934.33 519.828 1935.6 518.569 1935.6 517.025C1935.6 515.461 1934.33 514.202 1932.77 514.202C1932.28 514.202 1931.81 514.323 1931.4 514.587C1930.93 514.811 1930.56 515.197 1930.31 515.664C1930.07 516.07 1929.95 516.537 1929.95 517.025Z" fill="white" fill-opacity="0.34"></path><path d="M1715.1 190.876C1714.54 191.242 1713.87 191.445 1713.15 191.445C1711.16 191.445 1709.54 189.84 1709.54 187.87C1709.54 185.9 1711.16 184.295 1713.15 184.295C1715.14 184.295 1716.76 185.9 1716.76 187.87C1716.76 188.581 1716.53 189.231 1716.18 189.799L1766.03 239.198V293.654C1768.08 294.02 1769.63 295.787 1769.63 297.919C1769.63 300.316 1767.67 302.246 1765.25 302.246C1762.85 302.246 1760.88 300.316 1760.88 297.919C1760.88 295.787 1762.46 294.02 1764.49 293.654V239.827L1715.1 190.876ZM1762.42 297.919C1762.42 299.463 1763.69 300.722 1765.25 300.722C1766.83 300.722 1768.1 299.463 1768.1 297.919C1768.1 296.64 1767.24 295.563 1766.03 295.238C1765.78 295.157 1765.51 295.116 1765.25 295.116C1764.98 295.116 1764.74 295.157 1764.49 295.238C1763.3 295.543 1762.42 296.64 1762.42 297.919Z" fill="white" fill-opacity="0.34"></path><path d="M2016.33 506.827V508.35H1953.47L1915.43 470.631C1914.74 471.118 1913.88 471.403 1912.95 471.403C1910.54 471.403 1908.59 469.453 1908.59 467.076C1908.59 464.68 1910.54 462.75 1912.95 462.75C1915.37 462.75 1917.32 464.68 1917.32 467.076C1917.32 468.011 1917.03 468.864 1916.52 469.554L1954.11 506.827H2016.33ZM1915.78 467.076C1915.78 465.533 1914.51 464.273 1912.95 464.273C1911.4 464.273 1910.13 465.533 1910.13 467.076C1910.13 468.62 1911.4 469.879 1912.95 469.879C1913.45 469.879 1913.92 469.758 1914.31 469.514C1914.78 469.29 1915.17 468.904 1915.39 468.437C1915.66 468.031 1915.78 467.564 1915.78 467.076Z" fill="white" fill-opacity="0.34"></path><path d="M1964.93 322.863H2005.37V324.386H1964.29L1910.43 271.007H1883.24C1882.89 272.612 1881.45 273.81 1879.71 273.81C1877.72 273.81 1876.1 272.205 1876.1 270.235C1876.1 268.265 1877.72 266.66 1879.71 266.66C1881.43 266.66 1882.87 267.859 1883.24 269.463H1911.07L1964.93 322.863Z" fill="white" fill-opacity="0.34"></path><path d="M1861.86 257.335H1898.79C1899.16 255.303 1900.94 253.76 1903.1 253.76C1905.49 253.76 1907.46 255.71 1907.46 258.106C1907.46 260.483 1905.49 262.433 1903.1 262.433C1900.94 262.433 1899.16 260.869 1898.79 258.858H1862.5L1842.45 278.743L1873.81 309.82C1874.49 309.394 1875.26 309.15 1876.1 309.15C1878.52 309.15 1880.49 311.1 1880.49 313.477C1880.49 315.873 1878.52 317.823 1876.1 317.823C1873.71 317.823 1871.74 315.873 1871.74 313.477C1871.74 312.481 1872.09 311.567 1872.66 310.836L1840.28 278.743L1861.86 257.335ZM1903.1 260.91C1904.65 260.91 1905.93 259.65 1905.93 258.106C1905.93 256.542 1904.65 255.283 1903.1 255.283C1901.81 255.283 1900.72 256.136 1900.39 257.335C1900.31 257.578 1900.27 257.842 1900.27 258.106C1900.27 258.371 1900.31 258.614 1900.39 258.858C1900.7 260.036 1901.81 260.91 1903.1 260.91ZM1873.28 313.477C1873.28 315.041 1874.55 316.3 1876.1 316.3C1877.68 316.3 1878.95 315.041 1878.95 313.477C1878.95 311.933 1877.68 310.674 1876.1 310.674C1875.69 310.674 1875.31 310.755 1874.94 310.938C1874.44 311.141 1874.03 311.486 1873.77 311.933C1873.44 312.38 1873.28 312.908 1873.28 313.477Z" fill="white" fill-opacity="0.34"></path><path d="M1893.2 346.505V311.163L1867.54 285.712C1866.98 286.078 1866.31 286.281 1865.59 286.281C1863.6 286.281 1861.98 284.676 1861.98 282.706C1861.98 280.736 1863.6 279.131 1865.59 279.131C1867.58 279.131 1869.2 280.736 1869.2 282.706C1869.2 283.417 1868.99 284.067 1868.62 284.615L1894.73 310.513V345.855L1929.47 380.284V403.196C1931.5 403.561 1933.08 405.328 1933.08 407.461C1933.08 409.858 1931.11 411.788 1928.72 411.788C1926.3 411.788 1924.35 409.858 1924.35 407.461C1924.35 405.328 1925.89 403.561 1927.94 403.196V380.914L1893.2 346.505ZM1925.89 407.481C1925.89 409.025 1927.16 410.284 1928.72 410.284C1930.27 410.284 1931.54 409.025 1931.54 407.481C1931.54 406.202 1930.66 405.105 1929.47 404.8C1929.23 404.719 1928.98 404.678 1928.72 404.678C1928.45 404.678 1928.18 404.719 1927.94 404.8C1926.75 405.125 1925.89 406.202 1925.89 407.481Z" fill="white" fill-opacity="0.34"></path><path d="M1902.5 341.164V304.927L1888.05 290.608C1887.34 291.115 1886.48 291.4 1885.55 291.4C1883.16 291.4 1881.19 289.45 1881.19 287.053C1881.19 284.677 1883.16 282.727 1885.55 282.727C1887.97 282.727 1889.94 284.677 1889.94 287.053C1889.94 287.987 1889.65 288.84 1889.14 289.531L1904.04 304.298V340.534L1940.89 377.055V423.224C1942.94 423.589 1944.5 425.356 1944.5 427.489C1944.5 429.886 1942.55 431.816 1940.13 431.816C1937.71 431.816 1935.77 429.886 1935.77 427.489C1935.77 425.356 1937.3 423.589 1939.35 423.224V377.684L1902.5 341.164ZM1888.4 287.053C1888.4 285.509 1887.13 284.25 1885.55 284.25C1884 284.25 1882.72 285.509 1882.72 287.053C1882.72 288.617 1884 289.876 1885.55 289.876C1886.07 289.876 1886.54 289.754 1886.95 289.511C1887.4 289.267 1887.79 288.881 1888.03 288.434C1888.28 288.028 1888.4 287.561 1888.4 287.053ZM1937.3 427.489C1937.3 429.033 1938.57 430.292 1940.13 430.292C1941.69 430.292 1942.96 429.033 1942.96 427.489C1942.96 426.209 1942.08 425.113 1940.89 424.808C1940.64 424.727 1940.4 424.686 1940.13 424.686C1939.86 424.686 1939.6 424.727 1939.35 424.808C1938.16 425.133 1937.3 426.209 1937.3 427.489Z" fill="white" fill-opacity="0.34"></path><path d="M1753.13 336.512C1755.53 336.512 1757.5 338.441 1757.5 340.838C1757.5 341.772 1757.21 342.626 1756.7 343.316L1843.56 429.377V499.92L1937.02 592.542H2043.34V594.066H1936.38L1842.02 500.55V430.007L1755.61 344.393C1754.9 344.88 1754.04 345.165 1753.13 345.165C1750.72 345.165 1748.77 343.235 1748.77 340.838C1748.77 338.441 1750.72 336.512 1753.13 336.512ZM1753.13 343.641C1753.63 343.641 1754.1 343.519 1754.49 343.276C1754.96 343.052 1755.35 342.666 1755.57 342.199C1755.84 341.793 1755.96 341.326 1755.96 340.838C1755.96 339.294 1754.69 338.035 1753.13 338.035C1751.58 338.035 1750.31 339.294 1750.31 340.838C1750.31 342.382 1751.58 343.641 1753.13 343.641Z" fill="white" fill-opacity="0.34"></path><path d="M1465 100.59V37.4603L1478.62 23.9326V-23.6987L1465.49 -36.7185V-44.9245L1430.75 -79.3531C1430.05 -78.8453 1429.19 -78.5609 1428.27 -78.5609C1425.85 -78.5609 1423.88 -80.5109 1423.88 -82.8874C1423.88 -85.2842 1425.85 -87.2341 1428.27 -87.2341C1430.67 -87.2341 1432.63 -85.2842 1432.63 -82.8874C1432.63 -81.9733 1432.35 -81.1202 1431.83 -80.4296L1441.47 -70.8831V-88.4528L1419.27 -110.451V-165.557L1430.42 -176.606V-223.953H1431.96V-116.524L1495.51 -53.5367V91.6523C1497.56 92.0179 1499.1 93.8054 1499.1 95.9381C1499.1 98.3146 1497.15 100.265 1494.73 100.265C1492.32 100.265 1490.37 98.3146 1490.37 95.9381C1490.37 93.8054 1491.93 92.0179 1493.98 91.6523V-52.9071L1430.42 -115.894V-174.453L1420.81 -164.927V-111.08L1443 -89.0825V-69.3597L1467.02 -45.5745V-37.3685L1478.62 -25.8517V-48.8041L1460.69 -66.5566C1459.99 -66.0489 1459.13 -65.7645 1458.21 -65.7645C1455.79 -65.7645 1453.85 -67.7144 1453.85 -70.1112C1453.85 -72.4877 1455.79 -74.4376 1458.21 -74.4376C1460.63 -74.4376 1462.58 -72.4877 1462.58 -70.1112C1462.58 -69.1769 1462.29 -68.3238 1461.8 -67.6332L1480.16 -49.4338V24.5623L1466.53 38.09V100.59C1468.6 100.935 1470.16 102.722 1470.16 104.855C1470.16 107.252 1468.21 109.181 1465.79 109.181C1463.38 109.181 1461.43 107.252 1461.43 104.855C1461.43 102.743 1462.97 100.975 1465 100.59ZM1431.1 -82.8874C1431.1 -84.4514 1429.83 -85.7107 1428.27 -85.7107C1426.69 -85.7107 1425.42 -84.4514 1425.42 -82.8874C1425.42 -81.3437 1426.69 -80.0843 1428.27 -80.0843C1428.76 -80.0843 1429.23 -80.2062 1429.64 -80.4499C1430.09 -80.6937 1430.48 -81.0796 1430.73 -81.5265C1430.97 -81.9327 1431.1 -82.3999 1431.1 -82.8874ZM1491.91 95.9381C1491.91 97.4818 1493.18 98.7411 1494.73 98.7411C1496.29 98.7411 1497.56 97.4818 1497.56 95.9381C1497.56 94.6382 1496.7 93.5616 1495.51 93.2366C1495.27 93.1554 1495 93.1147 1494.73 93.1147C1494.47 93.1147 1494.22 93.1554 1493.98 93.2366C1492.79 93.5413 1491.91 94.6382 1491.91 95.9381ZM1461.04 -70.1112C1461.04 -71.6549 1459.77 -72.9142 1458.21 -72.9142C1456.65 -72.9142 1455.38 -71.6549 1455.38 -70.1112C1455.38 -68.5472 1456.65 -67.2879 1458.21 -67.2879C1458.7 -67.2879 1459.18 -67.4097 1459.58 -67.6535C1460.04 -67.8972 1460.43 -68.2628 1460.67 -68.73C1460.92 -69.1362 1461.04 -69.6034 1461.04 -70.1112ZM1465.79 107.658C1467.35 107.658 1468.62 106.399 1468.62 104.855C1468.62 103.555 1467.74 102.479 1466.53 102.154C1466.29 102.093 1466.04 102.052 1465.79 102.052C1465.51 102.052 1465.24 102.093 1465 102.174C1463.83 102.519 1462.97 103.596 1462.97 104.855C1462.97 106.399 1464.24 107.658 1465.79 107.658Z" fill="white" fill-opacity="0.34"></path><path d="M1475.69 124.232V49.525L1481.72 43.5533C1481.35 43.0049 1481.15 42.3346 1481.15 41.6237C1481.15 39.6535 1482.76 38.0488 1484.75 38.0488C1486.74 38.0488 1488.36 39.6535 1488.36 41.6237C1488.36 43.5939 1486.74 45.1986 1484.75 45.1986C1484.04 45.1986 1483.38 44.9751 1482.81 44.6298L1477.23 50.1547V124.232C1479.28 124.598 1480.84 126.385 1480.84 128.497C1480.84 130.894 1478.87 132.844 1476.45 132.844C1474.05 132.844 1472.09 130.894 1472.09 128.497C1472.09 126.385 1473.66 124.598 1475.69 124.232ZM1476.45 131.321C1478.03 131.321 1479.3 130.061 1479.3 128.497C1479.3 127.218 1478.44 126.141 1477.23 125.816C1476.98 125.735 1476.72 125.694 1476.45 125.694C1476.19 125.694 1475.94 125.735 1475.69 125.816C1474.51 126.121 1473.62 127.218 1473.62 128.497C1473.62 130.061 1474.89 131.321 1476.45 131.321Z" fill="white" fill-opacity="0.34"></path><path d="M1895.37 -197.365V-156.884L1881.02 -142.665V-89.5499L1890.72 -79.9627V-0.299606C1892.77 0.0660095 1894.32 1.85345 1894.32 3.98619C1894.32 6.36269 1892.36 8.31261 1889.94 8.31261C1887.54 8.31261 1885.57 6.36269 1885.57 3.98619C1885.57 1.85345 1887.15 0.0660095 1889.18 -0.299606V-79.333L1879.49 -88.9202V-143.295L1893.83 -157.513V-197.365C1891.8 -197.731 1890.23 -199.498 1890.23 -201.631C1890.23 -204.027 1892.19 -205.957 1894.59 -205.957C1897.01 -205.957 1898.98 -204.027 1898.98 -201.631C1898.98 -199.498 1897.42 -197.731 1895.37 -197.365ZM1887.11 3.98619C1887.11 5.52989 1888.38 6.78922 1889.94 6.78922C1891.52 6.78922 1892.79 5.52989 1892.79 3.98619C1892.79 2.70654 1891.93 1.60971 1890.72 1.28471C1890.47 1.20346 1890.21 1.16284 1889.94 1.16284C1889.67 1.16284 1889.43 1.20346 1889.18 1.28471C1887.99 1.60971 1887.11 2.70654 1887.11 3.98619ZM1894.59 -204.434C1893.03 -204.434 1891.76 -203.174 1891.76 -201.631C1891.76 -200.351 1892.64 -199.254 1893.83 -198.949C1894.08 -198.868 1894.32 -198.828 1894.59 -198.828C1894.86 -198.828 1895.12 -198.868 1895.37 -198.949C1896.58 -199.274 1897.44 -200.351 1897.44 -201.631C1897.44 -203.174 1896.17 -204.434 1894.59 -204.434Z" fill="white" fill-opacity="0.34"></path><path d="M1507.24 117.001V62.037L1521.79 47.6156V20.3165C1519.78 19.9306 1518.24 18.1634 1518.24 16.0713C1518.24 13.6745 1520.21 11.7449 1522.61 11.7449C1525.03 11.7449 1526.99 13.6745 1526.99 16.0713C1526.99 18.2041 1525.39 19.9915 1523.32 20.3368V48.2453L1508.77 62.6667V79.8505L1534 54.8466V20.6618L1551.14 3.6811V-16.8339C1549.11 -17.1995 1547.53 -18.9666 1547.53 -21.0994C1547.53 -23.4758 1549.5 -25.4258 1551.89 -25.4258C1554.31 -25.4258 1556.26 -23.4758 1556.26 -21.0994C1556.26 -18.9666 1554.72 -17.1995 1552.67 -16.8339V4.31076L1535.54 21.2915V55.4763L1508.77 82.0036V117.001C1510.39 117.346 1511.62 118.768 1511.62 120.495C1511.62 122.465 1510 124.069 1508.01 124.069C1506.03 124.069 1504.41 122.465 1504.41 120.495C1504.41 118.768 1505.62 117.346 1507.24 117.001ZM1525.46 16.051C1525.46 14.5073 1524.19 13.248 1522.61 13.248C1521.05 13.248 1519.78 14.5073 1519.78 16.051C1519.78 17.3103 1520.62 18.3869 1521.79 18.7119C1522.05 18.8134 1522.32 18.854 1522.61 18.854C1522.85 18.854 1523.1 18.8134 1523.32 18.7525C1524.55 18.4478 1525.46 17.351 1525.46 16.051ZM1554.72 -21.1197C1554.72 -22.6634 1553.45 -23.9227 1551.89 -23.9227C1550.34 -23.9227 1549.07 -22.6634 1549.07 -21.1197C1549.07 -19.84 1549.95 -18.7432 1551.14 -18.4385C1551.38 -18.3573 1551.63 -18.3166 1551.89 -18.3166C1552.16 -18.3166 1552.43 -18.3573 1552.67 -18.4385C1553.86 -18.7635 1554.72 -19.84 1554.72 -21.1197Z" fill="white" fill-opacity="0.34"></path><path d="M1560.67 162.683V114.24L1600.63 74.6315V40.995C1598.58 40.6294 1597.02 38.842 1597.02 36.7295C1597.02 34.3327 1598.97 32.3828 1601.39 32.3828C1603.81 32.3828 1605.76 34.3327 1605.76 36.7295C1605.76 38.842 1604.22 40.6294 1602.17 40.995V75.2611L1562.2 114.869V162.683C1563.82 163.029 1565.03 164.45 1565.03 166.157C1565.03 168.127 1563.41 169.732 1561.42 169.732C1559.44 169.732 1557.82 168.127 1557.82 166.157C1557.82 164.45 1559.03 163.029 1560.67 162.683ZM1604.22 36.7092C1604.22 35.1452 1602.95 33.8859 1601.39 33.8859C1599.83 33.8859 1598.56 35.1452 1598.56 36.7092C1598.56 37.9889 1599.44 39.0857 1600.63 39.3904C1600.88 39.4716 1601.12 39.5123 1601.39 39.5123C1601.66 39.5123 1601.92 39.4716 1602.17 39.3904C1603.36 39.0654 1604.22 37.9889 1604.22 36.7092Z" fill="white" fill-opacity="0.34"></path><path d="M1507.3 -2.41151V-58.4925L1445.01 -120.22V-171.101C1443.39 -171.447 1442.18 -172.869 1442.18 -174.595C1442.18 -176.565 1443.8 -178.17 1445.79 -178.17C1447.78 -178.17 1449.4 -176.565 1449.4 -174.595C1449.4 -172.889 1448.19 -171.467 1446.57 -171.101V-120.85L1508.85 -59.1222V-2.3709C1510.43 -2.00528 1511.62 -0.58345 1511.62 1.10243C1511.62 3.07268 1510 4.67732 1508.01 4.67732C1506.03 4.67732 1504.41 3.07268 1504.41 1.10243C1504.39 -0.644394 1505.64 -2.08653 1507.3 -2.41151Z" fill="white" fill-opacity="0.34"></path><path d="M1914.02 0.634445C1912.03 0.634445 1910.41 -0.970184 1910.41 -2.94044C1910.41 -4.56538 1911.52 -5.92628 1913.02 -6.35283V-251.334H1914.55V-6.45438C1916.28 -6.19032 1917.61 -4.72787 1917.61 -2.94044C1917.63 -0.970184 1916.01 0.634445 1914.02 0.634445Z" fill="white" fill-opacity="0.34"></path><path d="M1819.25 130.448C1817.53 130.448 1816.1 129.25 1815.73 127.645H1789.72L1746.49 84.8073H1848.13C1848.5 82.7761 1850.3 81.2324 1852.45 81.2324C1854.85 81.2324 1856.82 83.1824 1856.82 85.5792C1856.82 87.9556 1854.85 89.9056 1852.45 89.9056C1850.3 89.9056 1848.5 88.3416 1848.13 86.3307H1750.22L1790.37 126.122H1815.75C1816.1 124.517 1817.53 123.319 1819.27 123.319C1821.26 123.319 1822.88 124.923 1822.88 126.893C1822.88 128.864 1821.24 130.448 1819.25 130.448ZM1852.45 88.3619C1854.01 88.3619 1855.28 87.1026 1855.28 85.5589C1855.28 83.9948 1854.01 82.7355 1852.45 82.7355C1851.14 82.7355 1850.06 83.5886 1849.73 84.787C1849.65 85.0307 1849.6 85.2948 1849.6 85.5589C1849.6 85.8229 1849.65 86.0666 1849.73 86.3104C1850.04 87.4885 1851.14 88.3619 1852.45 88.3619Z" fill="white" fill-opacity="0.34"></path><path d="M1809.58 291.216C1807.59 291.216 1805.97 289.612 1805.97 287.641C1805.97 285.671 1807.59 284.066 1809.58 284.066C1811.57 284.066 1813.19 285.671 1813.19 287.641C1813.19 288.21 1813.04 288.718 1812.82 289.205L1917.91 393.364V430.129L1957.43 469.29H2016.33V470.814H1956.79L1916.38 430.759V393.994L1811.85 290.404C1811.22 290.891 1810.44 291.216 1809.58 291.216Z" fill="white" fill-opacity="0.34"></path><path d="M1623.05 164.938C1624.77 164.938 1626.21 166.136 1626.56 167.741H1663.74L1681.07 184.924C1681.77 184.437 1682.63 184.153 1683.57 184.153C1685.99 184.153 1687.94 186.082 1687.94 188.479C1687.94 190.876 1685.99 192.805 1683.57 192.805C1681.16 192.805 1679.21 190.876 1679.21 188.479C1679.21 187.545 1679.5 186.692 1679.99 186.001L1663.1 169.264H1626.58C1626.23 170.869 1624.8 172.087 1623.05 172.087C1621.06 172.087 1619.45 170.483 1619.45 168.512C1619.45 166.542 1621.06 164.938 1623.05 164.938ZM1680.75 188.479C1680.75 190.023 1682.02 191.282 1683.57 191.282C1685.13 191.282 1686.4 190.023 1686.4 188.479C1686.4 186.935 1685.13 185.676 1683.57 185.676C1683.08 185.676 1682.61 185.798 1682.2 186.042C1681.75 186.285 1681.36 186.671 1681.12 187.118C1680.87 187.524 1680.75 187.991 1680.75 188.479Z" fill="white" fill-opacity="0.34"></path><path d="M1788.41 266.295C1785.99 266.295 1784.02 264.345 1784.02 261.948C1784.02 259.572 1785.99 257.622 1788.41 257.622C1790.5 257.622 1792.28 259.105 1792.69 261.075H1837.88L1864.05 235.137H1897.07L1972.06 309.478H2005.37V311.001H1971.43L1896.44 236.66H1864.69L1838.52 262.598H1792.73C1792.4 264.69 1790.58 266.295 1788.41 266.295ZM1788.41 259.145C1786.85 259.145 1785.56 260.405 1785.56 261.948C1785.56 263.512 1786.85 264.772 1788.41 264.772C1789.74 264.772 1790.87 263.858 1791.15 262.598C1791.21 262.395 1791.24 262.172 1791.24 261.948C1791.24 261.644 1791.19 261.359 1791.07 261.075C1790.72 259.958 1789.66 259.145 1788.41 259.145Z" fill="white" fill-opacity="0.34"></path><path d="M1601.39 119.357C1603.54 119.357 1605.32 120.901 1605.69 122.932H1662.14L1690.69 151.227C1691.38 150.739 1692.24 150.455 1693.19 150.455C1695.61 150.455 1697.57 152.384 1697.57 154.781C1697.57 157.178 1695.61 159.108 1693.19 159.108C1690.79 159.108 1688.82 157.178 1688.82 154.781C1688.82 153.867 1689.11 153.014 1689.62 152.324L1661.5 124.456H1605.69C1605.32 126.467 1603.54 128.031 1601.39 128.031C1598.97 128.031 1597.02 126.081 1597.02 123.704C1597.02 121.307 1598.97 119.357 1601.39 119.357ZM1690.36 154.781C1690.36 156.325 1691.63 157.584 1693.19 157.584C1694.76 157.584 1696.04 156.325 1696.04 154.781C1696.04 153.238 1694.76 151.978 1693.19 151.978C1692.69 151.978 1692.22 152.1 1691.81 152.344C1691.36 152.588 1690.97 152.974 1690.73 153.42C1690.48 153.827 1690.36 154.294 1690.36 154.781ZM1601.39 126.507C1602.68 126.507 1603.79 125.634 1604.1 124.456C1604.18 124.212 1604.22 123.968 1604.22 123.704C1604.22 123.44 1604.18 123.176 1604.1 122.932C1603.77 121.754 1602.68 120.881 1601.39 120.881C1599.83 120.881 1598.56 122.16 1598.56 123.704C1598.56 125.248 1599.83 126.507 1601.39 126.507Z" fill="white" fill-opacity="0.34"></path><path d="M1635 178.547C1637.13 178.547 1638.94 180.091 1639.31 182.122H1656.42L1691.94 217.302H1713.72L1700.38 204.079C1699.83 204.424 1699.15 204.648 1698.45 204.648C1696.47 204.648 1694.85 203.043 1694.85 201.073C1694.85 199.102 1696.47 197.498 1698.45 197.498C1700.44 197.498 1702.06 199.102 1702.06 201.073C1702.06 201.784 1701.84 202.454 1701.49 203.002L1742.95 244.073V294.69L1787.65 339.01V287.764C1785.6 287.398 1784.04 285.611 1784.04 283.498C1784.04 281.101 1786.01 279.151 1788.43 279.151C1790.82 279.151 1792.79 281.101 1792.79 283.498C1792.79 285.611 1791.21 287.398 1789.19 287.764V342.687L1741.41 295.32V244.703L1715.28 218.825H1691.3L1655.8 183.645H1639.33C1638.96 185.676 1637.15 187.2 1635.02 187.2C1632.6 187.2 1630.64 185.27 1630.64 182.873C1630.62 180.476 1632.58 178.547 1635 178.547ZM1791.23 283.498C1791.23 281.934 1789.96 280.675 1788.41 280.675C1786.85 280.675 1785.56 281.934 1785.56 283.498C1785.56 284.778 1786.44 285.854 1787.63 286.179C1787.87 286.261 1788.14 286.301 1788.41 286.301C1788.67 286.301 1788.92 286.261 1789.16 286.179C1790.35 285.875 1791.23 284.778 1791.23 283.498ZM1635 185.676C1636.29 185.676 1637.38 184.823 1637.71 183.645C1637.79 183.401 1637.83 183.137 1637.83 182.873C1637.83 182.609 1637.79 182.365 1637.71 182.122C1637.4 180.944 1636.29 180.07 1635 180.07C1633.42 180.07 1632.15 181.33 1632.15 182.873C1632.15 184.417 1633.42 185.676 1635 185.676Z" fill="white" fill-opacity="0.34"></path><path d="M1539.37 134.978V107.069L1577.98 68.8219V-65.8253C1575.93 -66.1909 1574.38 -67.9783 1574.38 -70.1111C1574.38 -72.4876 1576.32 -74.4375 1578.74 -74.4375C1581.16 -74.4375 1583.11 -72.4876 1583.11 -70.1111C1583.11 -67.9783 1581.57 -66.1909 1579.52 -65.8253V69.4516L1540.91 107.699V134.978C1542.96 135.343 1544.52 137.11 1544.52 139.243C1544.52 141.64 1542.57 143.57 1540.15 143.57C1537.73 143.57 1535.79 141.64 1535.79 139.243C1535.79 137.11 1537.32 135.343 1539.37 134.978ZM1581.57 -70.1111C1581.57 -71.6548 1580.3 -72.9141 1578.74 -72.9141C1577.19 -72.9141 1575.91 -71.6548 1575.91 -70.1111C1575.91 -68.8111 1576.8 -67.7143 1577.98 -67.4096C1578.23 -67.3284 1578.48 -67.2877 1578.74 -67.2877C1579.01 -67.2877 1579.28 -67.3284 1579.52 -67.4096C1580.71 -67.7346 1581.57 -68.8111 1581.57 -70.1111ZM1540.15 142.046C1541.71 142.046 1542.98 140.787 1542.98 139.243C1542.98 137.963 1542.1 136.867 1540.91 136.562C1540.66 136.481 1540.42 136.44 1540.15 136.44C1539.88 136.44 1539.62 136.481 1539.37 136.562C1538.18 136.887 1537.32 137.963 1537.32 139.243C1537.32 140.787 1538.59 142.046 1540.15 142.046Z" fill="white" fill-opacity="0.34"></path></g></g></svg>